<svg viewBox="0 0 512 512" xml:space="preserve" xmlns="http://www.w3.org/2000/svg"><linearGradient gradientUnits="userSpaceOnUse" id="a" x1="135.103" x2="376.897" y1="471" y2="229.206"><stop offset="0" stop-color="#7f29ff" class="stop-color-ff7bac"></stop><stop offset="1" stop-color="#00ffff" class="stop-color-00ffff"></stop></linearGradient><path d="M371.994 461.68H140.007c-18.966 0-34.34-15.375-34.34-34.34V272.867c0-18.966 15.374-34.34 34.34-34.34h231.987c18.965 0 34.339 15.375 34.339 34.34V427.34c0 18.965-15.374 34.34-34.339 34.34z" fill="url(#a)" class="fillurl(-a)"></path><path d="M377.521 224.297h-40v-53.116c0-44.587-36.274-80.861-80.86-80.861-44.587 0-80.861 36.274-80.861 80.861v53.116h-40v-53.116c0-66.643 54.218-120.861 120.861-120.861s120.86 54.218 120.86 120.861v53.116zM291 327.844c0-19.33-15.67-35-35-35s-35 15.67-35 35c0 10.8 4.895 20.453 12.582 26.873l-11.732 41.986h68.01l-11.677-41.788c7.824-6.419 12.817-16.161 12.817-27.071z" fill="#005273" class="fill-3f5eab"></path></svg>