<?xml version="1.0" encoding="UTF-8"?>
<svg id="Layer_1" data-name="Layer 1" xmlns="http://www.w3.org/2000/svg" viewBox="0 0 3521.49 1007.72">
  <defs>
    <style>
      .cls-1 {
        fill: #fff;
      }
    </style>
  </defs>
  <path class="cls-1" d="m726.03,489.09c24.32-8.24,45.93-20.14,68.13-30.74,24.68-11.78,46.92-27.3,68.36-44,5-3.93,9.26-8.89,13.72-13.51,1.94-2,1.75-4.65,2-7.4,1.2-16.07-3.41-31-8.53-45.82-6.19-17.93-12.79-35.73-21.52-52.63-1.7-3.29.62-6,1.29-8.8,2.62-10.93,5.55-21.8,8.68-32.61.51-1.75.75-4.63,3.43-4.89s4.37,2,5.48,4c3.44,6.13,6,12.68,9.23,19,6.17,12.12,22.31,13.29,31.35,11.09,26.79-6.51,37.27-26.61,43.68-50.55,2.59-9.67,5.55-19.23,11-27.88,3.73-6,5-6.4,10-1.64,7.84,7.44,9.2,17.8,11.45,27.43,3,13,4.38,26.36,6.07,39.64,4,31.3,11.5,61.31,31.06,87.33,21.68,28.83,51.28,44.32,85.28,52.69,24.15,5.9,48.74,9.85,73.52,11.81,33,2.69,66,3.87,99,2.39,28.19-1.11,56.3-3.72,84.22-7.81,33.34-5.09,66.4-11.23,99-19.39,34.27-8.57,68.11-18.68,101.52-30.35,34.17-12,67.86-25,100.9-39.71,18.89-8.43,38.12-16.32,56.28-26.14,23.43-12.66,47.07-24.94,70.41-37.76,23.65-13,46.82-26.77,70.52-39.66,21.22-11.54,41.3-25.08,62.92-36,24.44-12.35,48.93-24.47,75-33.24,11.59-3.91,35.13.63,42.21,7.74,1.76,1.52,2.51,3.9,1.94,6.15-2.41,11.73-4.48,23.56-9.7,34.54-1.26,2.66-2.72,3.12-5,2.33-27.29-9.67-51.79-.69-76.18,10.78-50.64,23.82-97.28,54.66-145.9,82-25.11,14.14-50.35,28.05-75.7,41.74-5.56,3-9,6.33-11,12.57-6.84,21.76-16.4,42.65-21.17,65.08-2.67,12.55-5.33,25.07-2.73,38.09,4.7,23.59,20.7,34,43.89,27.22,22-6.37,39.09-20.23,54.38-36.71,24.85-26.78,48.45-54.74,75-79.9,23.22-22,47.76-42.35,77.5-55.18,15.49-6.68,31.68-13.05,48.62-11.86,18.45,1.31,33.74,9.91,42.72,27.53s.05,33.09-5.56,48.93c-1,2.85-3.36,3.2-5.51.62-.82-.85-1.55-1.79-2.18-2.8-11.95-23-32.66-27.23-56.28-22.35-25.16,5.19-46.15,18.63-65.8,34.44-5.19,4.14-10.19,8.62-15.07,13.14-2.21,2.08-8,3.36-2.38,8.22,1.3,1.14-.27,4-.84,6.12-6.69,24.51-13.49,49-15.49,74.49-.59,6.68-.25,13.41,1,20,3.13,15.79,14.5,23.73,33.6,23.93,27.81.29,53.54-7.55,77.81-20.45,43.33-23,81.9-51.82,111.6-91.62,7.21-9.65,8.93-19.78,7.44-30.78-5.61-41.53-16.89-82.09-33.52-120.56-6.89-16.09-13.79-32.21-20.68-48.35-2.56-6-1.33-11.94-.12-18.06,2-9.84,2.34-19.94,4.8-29.73.47-1.89,1-3.11,2.82-3.41s3,.25,4.45,2.11c19.11,24.08,32.06,51.36,42.53,80,13.52,36.94,21,75.3,27.35,114,4.54,27.6,9.26,55.17,14.45,82.65,1.6,8.28,4.64,16.2,9,23.42,6.39,10.63,16,15.48,28.24,15.87,22.14.83,43.91-5.81,61.82-18.85,7.56-5.38,14.38-12.22,18.33-21.11,3.59-8.09,7.35-16.12,10.53-24.37,4.15-10.75,13-18.16,18.94-27.59,7.8-12.34,17.84-23,29.89-30.59,17.92-11.21,38.69-10.46,52,13.46,7.4,13.28,12.55,27.66,12.06,43.59-.49,15.78.41,31.42-5.91,46.65-7.91,19.05-15.13,23.2-35.53,19.74-23-3.9-43.13-14-62.19-26.7-4-2.7-6.21-3.91-8.86,2.08-11.14,25.21-26.9,47-50.48,62.17-13.28,8.56-28,12.65-43.77,11.5-24.19-1.76-43-18.21-50.22-41.85-6.59-21.67-9.92-43.88-12.8-66.22-.12-.85.14-2-1.94-2.28-.9,3.06-1.84,6.24-2.77,9.42-5.41,18.42-16.89,33.1-29.53,46.89-28.65,31.39-62.67,57.42-100.46,76.85-18.75,9.65-38.89,16.32-59.69,19.76-15.35,2.56-31.86,2.58-44.62-8.84-7.94-7.11-12.18-17.19-16.38-27.11-3.73-8.79-2-17.69-2.75-26.54-2.33-27,4.48-52.55,11.78-78.05,2.61-9.1,4.8-18.34,7.61-27.85-7.54,8-15.16,15.85-22.6,23.9-16.17,17.49-32.28,35.03-48.33,52.6-11.74,12.89-24.35,24.75-40.69,31.49-7.46,3.07-14.83,6.87-23.46,6.55-11.27-.41-21.08-5.17-29.36-11.61-11.12-8.67-18.78-20.32-24.38-33.73-6.75-16.16-3.47-32.59-3.77-48.86-.23-12.86,6.06-24.7,9.1-37.09,3.4-13.92,9.52-26.93,15.63-40.76-7.41,1.38-13.22,5.44-19.31,8.49-19.42,9.73-39.36,18.3-59.31,26.83-26.19,11.21-52.64,21.79-79.58,31.12-31.78,11-63.68,21.52-96.36,29.68-23.73,5.93-47.62,11.03-71.66,15.3-22.22,3.92-44.66,6.76-67.14,9.32-39.63,4.51-79.29,5-118.95,3.59-28.75-1.06-57.32-4.92-85.32-11.52-17.45-4.1-35-8.16-51.2-15.78-21.72-10.19-40.72-24.09-55.79-43.24-10.22-13-19-26.75-24.63-42.09-4.23-11.12-7.09-22.72-8.52-34.54-1.9-17.06-4.86-34-7.41-51-.65-4.33-1.39-8.65-2.25-12.95-.24-1.22.31-3.2-1.69-3.4-1.66-.16-2.45,1.21-2.89,2.62-1.48,4.72-3.13,9.39-4.34,14.18-6.68,26.41-23.1,43.69-49,51.74-3.89,1.21-4.43,3.21-4,6.13,1.16,6.78,1.55,13.66,1.18,20.53-1.47,23.63-2.07,47.42-11.27,69.8-6.2,15.09-16.78,27-28.88,37.37-27.47,23.54-58.71,41.37-90.86,57.6-11.86,6-24.16,11.12-36.37,16.39-3.18,1.37-4.72,2.81-4.66,6.57.24,16-.53,32,.31,48,1.34,25.5,3,51,5.86,76.4,1.64,14.51,5.4,28.89,15,40.84,2.63,3.26,5.69,5.29,10.79,6.51-10.16-14.13-18.74-27.9-21.92-44.25-6.36-32.71.09-62.07,22-87.9,15.27-18,34.86-26.21,57.74-28.95,41.58-5,77.55,7.47,109.3,33.78,2.59,2.14,6.83,5,4.85,8.4-2.29,3.85-7,2.24-10.85.75-25.73-10-51.88-13.52-79.59-9-23,3.71-45.16,8.85-66,19.16-14.65,7.23-15.8,7.64-12.69,23.27,7.29,36.69,25.13,66.67,60.57,82.78,20.13,9.15,40.81,8.16,61.26-.7,24.47-10.6,46.88-24.61,68.5-40,6.38-4.69,12.48-9.74,18.29-15.12,2.68-2.4,5.54-3.15,8.06-1.15,2.12,1.69,1.23,4.49,0,7-2.55,4.92-4.8,10-6.74,15.19-5.76,16.59-17.67,27.71-31.49,37.71-17.69,12.82-34.87,26.31-54.66,36-27.26,13.33-55.8,20.56-86.3,19.53-16.38-.56-32.16-4.33-48-8.21-5.16-1.27-8.87-4.87-14.52-7.7,2.39,13,4.57,25,10.83,35.85,1.2,2.07,3,1.88,5.46,1.2,11.69-3.17,23.39-6.77,35.49-7.72,20.7-1.63,36.54,6.57,45,26.86,8.17,19.71,9.45,40.07,2.56,60.52-8.45,25.07-30.38,34.21-54,22.44-18.45-9.17-30.23-25-40.66-42l-4.89-8c-18,10.35-36,20.43-55.65,26.68-13.07,4.15-26.13,7.07-40.34,4.13-18.89-3.92-29.57-18.3-32.41-37.42-.17-2.13-.51-4.23-1-6.31-.59-1.91,1-4.86-1.6-5.63-2.83-.87-4.82,1.51-6.55,3.46-7.14,8-14,16.29-21.36,24.13-15.79,16.92-34.45,30-57.65,33-24.8,3.27-49.7,3.33-70.31-15.08-10.16-9.08-16.42-20.83-23.34-32.18-3.81-6.25-7.34-12.68-11.38-18.79-5.66-8.55-10.79-10.27-20.8-7.82-14.49,3.55-24.28,13.58-33.73,24.15-15,16.74-22,37.64-30.38,57.81-8.23,19.75-15.9,39.85-29.58,56.68-7.91,9.73-17,17.69-31.2,16.63-10.68-.8-18.19-6.7-24.63-14-15.82-17.91-23.52-39.82-29.17-62.53-6.48-26.09-3.18-52.7-2.36-79,.38-12.81,3.4-25.41,8.86-37,1.43-3,2-7.51,5.9-6.33s3.22,5.89,2.74,9.34c-2.05,14.59-3.9,29.18-4.09,43.94-.32,24.33-.08,48.61,7.28,72.16,2.43,7.76,5.73,15.09,11.11,21.35,13.61,15.85,35.37,15.23,48.29-1.19,10.81-13.72,16.2-30.24,23.67-45.63,11.68-24.09,21.27-49.29,37.64-70.81,9.66-12.69,21-23.71,35.64-31,17.61-8.74,29.14-3.66,38.61,10.08,7.84,11.39,14.55,23.56,22.49,34.87,15.14,21.55,36.75,27.87,62.13,26,20.92-1.52,39.46-8.8,56-21,12.57-9.29,23.62-20.44,34.37-31.83,3.7-3.92,7-8.43,12.21-10.65,6.83-2.89,10.2-.85,9.31,6.46-1.07,8.71-2.32,17.38.53,25.86,6.05,18,17.79,22.5,34.17,19.82,17.94-2.94,35.34-8.55,51.62-16.64,6.77-3.37,9.08-7.86,8-15.17-2.49-17.83-5.31-35.67-6.6-53.6-1.1-15.18-3-30.28-3.16-45.58-.23-21-3.08-41.87-5.35-62.76-1.76-16.26-2.33-32.66-3.1-49-.49-10.63,0-21.27-1.32-31.91-.6-4.77-2.77-2.74-4.66-2.11-16.19,5.44-32.77,9.39-49.41,13.1-21.76,4.84-44,7-66,4.29-18.84-2.34-37.61-6.46-55.16-15-13.43-6.56-25.5-14.5-35-26-13.29-16.09-21.79-34.41-26.44-54.89-2.23-9.8-2.64-19.43-3.15-29.28-1.56-29.6,5.58-57.54,15.42-85,4.72-13.17,9.27-26.4,17.45-38.08,2.21-3.14,5-5.32,7.79-4.35,4,1.37,2.34,5.16,1.59,8.54-4.64,21.1-13.79,41-17,62.43-5.39,36.06-.18,69.44,28,95.31,17.71,16.27,39.47,24.91,63.41,28.33,18.31,2.62,36.68,2.19,54.9,1,22.41-1.46,44.29-6.72,65.72-13.69,3.43-1.11,2.46-3.31,2.2-4.92-1.31-8.19-.74-16.43-1-24.64-.73-19.92-1-39.85-1.73-59.78-.84-24.13-1.51-48.28-3-72.38-1.15-18.88-1.85-37.77-2.85-56.64-1.36-25.67-3.56-51.3-5.24-76.95-1.22-18.7-1.83-37.44-3.38-56.1-1.05-12.69-2.53-25.32-1.32-38.07,2.26-23.8,3.21-47.73,7-71.39.67-4.18,1.27-8.39,1.74-12.6.32-2.85,2.33-2.47,4.22-2.54,2.29-.09,2.61,1.31,2.81,3.18,2.37,21.59,4.89,43.16,7.2,64.76,2.44,22.76,4.83,45.53,7,68.32,1.28,13.66,2.14,27.38,3.05,41.08,1.92,29.09,3.79,58.19,5.6,87.29.63,10.2.57,20.42,1.24,30.64,1.39,20.9.87,41.92,1.9,62.85,1.3,26.44.81,52.89,1.61,79.32.36,9.17.85,18.45,1.44,28.6Zm1626.1-54.72c.07-11.48-12.19-27.21-23.28-28.57-8.62-1.06-17.7-1.52-24.78,5.51-2.58,2.57-3.48,4.8.32,7.39,13.18,8.93,27.66,15,42.77,19.62,3.15.97,5.87.29,4.97-3.95Zm-1579.46,401.27c9.94,10.58,20.73,17,34.27,17.9,3.77.25,8.42.63,9.93-3.7,1.58-4.56-1.95-7.58-5.56-9.71-2.47-1.4-5.1-2.51-7.82-3.31-9.76-3.07-19.73-2.02-30.82-1.18Z"/>
  <path class="cls-1" d="m1052.58,654.16c-8.85-11.58-16.86-23.68-27.39-33.86-6.11-5.91-4-14.48-3.54-21.55.54-7.34,2.2-14.55,4.92-21.38,1.65-4.19,3.45-5,7.3-2.71,16.77,9.75,33.13,20.17,48.16,32.42,3.28,2.67,3.4,2.08,5.35-.67,14-19.75,26.47-40.67,43.91-57.76,5.6-5.29,11.51-10.25,17.68-14.85,3.65-2.95,8.35-4.27,13-3.66,5.27.67,8.88,2.57,8.38,8.65-.03.24-.03.47,0,.71,2.84,19.74-7.41,36.43-13.25,54-8.14,24.45-24.31,44.66-38.29,65.93-2.6,4-3.13,6.26.19,10.21,10.62,12.67,20.83,25.72,25.71,41.95,8.32,27.6,6.28,54.12-9,78.94-5.71,9.29-14.89,15.29-23.67,21.42-9.06,6.27-18.82,11.47-29.08,15.48-12.4,4.92-32.71.09-38.48-9.93-2.36-4.07-3.43-8.89-5.53-14.56-5.13,19-8.61,37.17-1.36,55.34,6,15.14,22.14,21.92,38.88,16.88,15.58-4.69,29-13.25,41.39-23.72,17.43-14.68,31.29-32.59,46.66-49.15,15.67-16.88,31.3-33.86,48.06-49.61,20.33-19.09,42.19-36.44,67.9-48.1,16.43-7.45,33.62-13.81,51.62-13.44,19.67.4,35.5,9.91,45.07,28,.52.76.86,1.62,1,2.52,0,14.61,2.1,29.55-6.1,43-1.14,1.86-1.28,4.81-4.5,4.81-2.89,0-2.92-2.47-4-4.23-12.47-20.59-28.55-26.85-52.7-23.38-18,2.59-33.1,11.14-48.53,19.51-5.39,2.92-4.9,8.36-6.24,13-8.14,28.31-15.86,56.65-14.15,86.62,1.45,25.4,21.72,48.61,46.78,53.19,26.73,4.88,51.42-1.52,75.63-12.4,22.39-10.06,42.71-23.4,62-38.19,9.92-7.59,19.94-15.22,28.87-24.13s18.29-17.18,27.39-25.81c6.51-6.17,12.23-13,16.13-21.14.95-1.88,1.46-3.95,1.48-6.06.06-10.85-1.28-11.54-11.89-10.14-19.77,2.63-39.64,3.53-59.22-1.47-16.08-4.11-26.23-17.56-26.47-34.3-.31-21.42,7.12-40.19,21.21-55.87,22.29-24.79,45.45-23.14,67.14,1.12,8.83,9.87,16.59,20.64,22.06,32.8,1.93,4.28,4.2,4.63,8.41,3.09,21.35-7.82,42.84-15.28,64.28-22.88,11-3.89,22-7.79,34.08-12.1-16.88-5.14-32.75-10-48.63-14.82-11.7-3.54-23.44-7-35.12-10.57-2.84-.88-5.72-1.8-7.88.65-7,7.91-16.61,6.3-24.74,5.29-10-1.24-20.17-.57-30.16-2.33-6.94-1.22-14.13-1-21.16-1.73-6.37-.69-7.8-3.9-4.83-9.5,4.36-8.22,9-16.33,12.85-24.78,4.07-8.83,9.65-14.82,20.12-15,10.94-.22,21.7-2.5,32.56-3.68,25.78-2.8,48.22,8.31,71.59,15.48,28.12,8.62,55.85,18.61,84.49,25.46,24.32,5.81,49,9.81,73.72,13.73,15.19,2.42,30.33,5.26,45.74,6.16,5,.3,7.39,2.17,4,7.78-5.56,9.24-10.53,18.84-15.47,28.43-2.34,4.55-5.46,6.59-10.71,6.44-11.21-.41-22.39-1.42-33.49-3-6.3-.83-12.82,0-19.24,0-1.73,0-2.47.63-2.64,2.47-.87,9.17-2,18.31-2.82,27.47-1.83,20.16-2.38,40.35,0,60.48,2.05,17,4.47,33.95,14.19,48.67,8.74,13.24,24.31,19.27,37.61,14.08,10.55-4.12,16.88-13.13,21.61-22.8,11.3-23.1,22-46.5,33-69.75,11.89-25.13,28-46.76,51.3-62.64,18.53-12.66,34.41-8.59,45.75,9.07,7.25,11.29,13.84,23.06,21.81,33.82,17.87,24.14,43,28.46,70.62,23.39,18-3.3,34.53-10.86,50.4-19.87,4-2.28,1.4-4-.33-6-9.63-11.16-22.29-17.36-35.69-22.78-13.71-5.54-27-6.55-40.36.51-2.73,1.44-5.6,2.08-7.89-.16s-.7-4.37.47-6.92c4.57-10,8.51-20.33,12.85-30.46,4-9.3,12.69-13.1,21.29-15.48,36.17-10,73-15.91,110.68-13,30.2,2.32,58.62,10.08,83.14,28.8,9.39,7.17,8.34,8,4.54,18-7.06,18.62-18.34,30.67-38.34,35.28-10.33,2.38-19.89,8.07-29.78,12.32-3.32,1.43-6.19,2.39-1,6,18.87,13,40,17.15,62.14,15.07,17.89-1.69,35.11-6.82,49.82-18.15,7.78-6.09,14.15-13.8,18.67-22.59,3.41-6.4,6.42-13,9-19.78,6-15.91,18.53-27.31,27.73-41,7.92-11.77,19.68-18.64,30.94-26.26,3.34-2.26,23.85-.16,27.45,2,16.69,9.89,21.1,26.8,25.87,43.71,7.65,27,2.77,52.18-10.72,76.21-3.12,5.57-7.63,7.73-14,7.73-28.47-.05-52.93-11.18-75.35-27.4-6-4.35-7.76-3.91-10.7,2.93-11.55,26.91-29.09,48.93-54.93,63.74-8.05,4.59-17.06,7.27-26.31,7.82-15.33.97-30.72-.43-45.62-4.15-11.92-2.94-21.87-9.78-31.42-16.93-8.5-6.37-17.55-12.21-24.6-20.35-3.61-4.17-7.24-3.31-11.24-.64-12.58,8.39-25.3,16.55-37.83,25-13.79,9.32-29,15.34-45.4,16.86-15.56,1.44-31.46,1.39-46.65-3.11s-25.92-15.27-34.24-28.36c-7-11.09-13.3-22.71-20.57-33.64s-12.72-14.56-28.84-6.79c-13.56,6.54-22.88,18.06-31.87,29.81-13.5,17.64-19.58,38.76-28.34,58.63-7.49,17-14.44,34.29-26.4,48.81-7,8.53-15.86,15.58-27,16.35-11.63.79-21.63-5.69-28.63-14.49-14.55-18.11-23.46-39.3-28.73-61.75-5.94-25.32-4.42-51.05-2.37-76.76,1.11-14.1,4.03-28,8.69-41.35-13.39-1.73-25.5,2.64-37.66,5.64-33.28,8.3-65.95,18.87-97.78,31.65-13.76,5.47-27.61,10.79-41.36,16.33-3.32,1.34-5.12,3.24-5.47,7.28-2.35,27.42-11.41,52.55-29.56,73.33-30.14,34.49-63.63,65.44-102.62,89.94-19.45,12.22-40.33,20.74-62.77,26.59-44.47,11.58-83.23-18.2-94.37-59-2.07-7.59-1.69-15.37-1.66-23.11,0-12.65-.36-25.33.38-37.95.87-14.9,4.89-29.3,9.09-43.58,2.17-7.4,3.63-15.08,7.52-21.91.31-.55.34-1.22.09-1.8-1-1.13-2.15-.76-3.14,0-4.26,3.4-8.7,6.59-12.67,10.3-25.1,23.48-47.6,49.42-70.95,74.56-14.21,15.31-27.18,32-45.53,43-11.71,7-23.91,12.44-38.07,11.86-11.47-.46-21-5.65-29.11-12.9-17.37-15.58-26.64-34.81-27.27-58.82-.66-25.51,7.25-48.75,16-71.81,5.82-15.43,11.54-31,19-45.81,6.69-13.34,14-26.31,21.55-39.18,1.2-2,2.34-3.14.23-5.33-3.62-3.74-7.77-7-10.49-11.62-1.65-2.83-3.16-.18-4.3,1-5.86,6.25-11.55,12.67-17.48,18.85-13.38,13.95-29.39,24.57-45.58,34.79-6.54,4.13-14.32,6.3-21.51,9.43-1.54.67-3.38,1.86-4.14-.3-.47-1.33-.55-2.95,1.47-4.7,17.41-15.14,35-30.08,51.69-46,9.47-9.07,17.19-19.85,26.62-28.95Zm19.06,128.62c24.43-3,44.35-14.42,61-32,2.82-3,1.22-5.56-.28-8.33-8.61-15.91-20.66-29-33.8-41.19-3.06-2.85-4.53-1.8-6.69.86-5.35,6.69-10.22,13.74-14.59,21.1-8.34,13.76-16.65,27.57-21.4,43.11-2.79,9.13.06,14.37,8.6,16,2.38.29,4.77.44,7.16.45Zm28.2-132.29c1.58,0,2-1.28,2.66-2.2,13.79-20.78,28.52-41,39.77-63.32,1.55-3.08,4.71-7.51,2.07-9.59-2.86-2.26-6.17,2.07-8.77,4.27-18,15.19-31.48,34.33-45.35,53.07-1.42,1.91-5.51,4-3.23,6.72,3.59,4.42,7.94,8.16,12.85,11.05Zm1227.13,45c-6.06.69-13.3.86-18.87,6.35-2.64,2.6-3.41,4.58.46,7.17,13.34,8.94,27.91,15.09,43.15,19.81,3.23,1,5.39.47,5.33-3.89-.27-13.82-15.36-29.28-30.12-29.39l.05-.05Zm-258.72,10.89c11.29,8,20.65,15.24,29,23.73.66.68,1,2.12,2.65,1.08,11.36-6.9,23.59-12.17,36.48-18.52-22.49-8.63-44.38-8.79-68.18-6.24l.05-.05Zm-592.53,24.66c-11.21-16.44-23.07-22.32-37.93-18.77-4.39,1-8.81,2.57-9.33,8.31s3.4,8.44,7.65,9.77c12.98,4.08,26.16,3.05,39.61.69Zm-393-118.12h-19.78c9.78,15.67,10.24,15.7,19.23,1.66.27-.51.47-1.06.59-1.63l-.04-.03Z"/>
  <path class="cls-1" d="m2430.84,473.9c0,46.77-.32,93.55.13,140.32.25,25.91,1.34,51.83,2.89,77.7,1.09,18,3,36.15,14,51.69,2.68,3.62,6.01,6.71,9.82,9.11,1.79,1.2,3.77,1.69,5.29.74,2.11-1.32.48-3.29,0-5.06-4.9-16.82-9-33.87-7.62-51.52,1.42-18.14,3.75-36.41,16.63-50.65,12.34-13.64,27.74-21.9,46.58-22.93,20.11-1.09,39.09,4.69,58.24,9.33,37.31,9,73.86,21.08,111.54,28.61,16.26,3.08,32.68,5.27,49.18,6.56,5,.44,10,.75,14.9,1.44,6.5.9,6.93,3.32,4,9.11-4,7.92-7,16.37-10.18,24.67-4.1,10.58-5.2,11.68-16.46,11.78-19,.17-36.33,6.68-53.39,14.14-37.31,16.3-71.85,38.12-109,54.63-23.41,10.39-47.12,20.05-73.16,21.62-2.53.15-2.82,1.21-3.34,3.34-1.13,4.56-2.83,8.95-5.07,13.07-.94,1.75-1.78,2.33-3.66,2.36-2.57,0-2.35-1.52-2.52-3.25-.43-4.37-3.24-8.09-2.64-13,.53-4.29-3.84-2.46-5.94-2.57-13.54-.7-26.1-4.1-35.31-14.57-11-12.56-16.94-27.71-20.56-44-7.47-33.59-3.53-67.94-7.26-101.72-2-17.58-.8-35-1.26-52.53-1-37.1-.6-74.23-1.77-111.32-.86-27.32-.47-54.64-1.51-81.92-.62-16.34,0-32.74-1.39-49-1.55-18,0-36-1.41-53.92s-1.55-35.66-3.65-53.47c-1.5-12.74-1.66-25.79-3.08-38.63-2.56-23.16-4.28-46.42-8.75-69.35-4.05-20.77-4.21-41.92-2.44-62.77,1.34-15.69,6.31-31.06,9.53-46.6.38-1.85,1.17-2.28,2.78-2.39,2.16-.14,2.5.9,3,2.87,5.91,23.69,10.25,47.74,13,72,2.77,24.93,5.45,49.83,7.23,74.87,1.54,21.76,3.05,43.52,4.18,65.31,3.65,70.48,5.16,141,5.93,211.57.09,8.1.7,16.2,1.08,24.29l1.44.04Zm223.7,227.47c-43.4-12.83-85.36-26.8-129.3-33.15-19.12-2.76-36,1.11-49.16,16.26-5.38,6.18-7.72,12.35-3.84,20.78,5,10.79,8.61,22.21,12.58,33.44,7.05,19.88,7,20,28,16.91,26.85-4,51.7-14.17,76.33-24.91,21.57-9.43,43.02-19.29,65.38-29.33h.01Z"/>
  <path class="cls-1" d="m333.97,499.62c-7.63-1-17.07,1.42-26.42-1.24-14.65-4.16-22.62-14.62-25.93-28.45-5.72-23.88,4.89-43.72,17.52-62.7,6.26-9.57,15.13-17.15,25.56-21.84,5.35-2.4,11.19-2.13,16.63-.46,31.76,9.75,50.11,33.4,62.92,62.18,11,24.7,12.35,51.09,10,77.46-2.59,29.12-17.81,50.15-43.42,64.82-24.76,14.18-50.47,26.1-76.54,37.47-8.15,3.56-15.6,8.62-22.73,14-3.68,2.79-6,5.8-3.37,10.81,1.52,2.84,1.8,6.31,3.18,9.24,1.5,3.21,3.46,4.82,7.91,3.31,14.37-4.89,29.25-8.32,44.42-8.92,16.69-.67,30,6.18,37.61,21.62,11.86,24,13.34,48.82,1.41,73-10.62,21.56-30.53,24.28-50.87,14.57-15.69-7.49-26.5-20.85-36.29-34.88-1.07-1.54-2.16-3.05-3.17-4.63-2.12-3.34-2.6-9.4-6.16-9.67-4.11-.31-8.58,2.82-12.73,4.81-33.42,16-62.31,38.55-90.64,62-21.81,18.09-43,37-66.83,52.59-13.39,8.92-29.58,12.64-45.52,10.48-8.67-1-16.07-5.63-22.67-11.22-11.42-9.65-18.61-22-23.56-36.06-7-19.79-4.39-39.22.51-58.79,7.16-28.6,18.72-55.44,32.3-81.49.11-.21.26-.4.39-.6,1.53-2.24,2.49-6.23,5.94-4.76,2.83,1.22,1.19,4.67.46,7-2.8,9.06-5.62,18.12-8.75,27.07-6.7,19.18-14.25,38.09-18.51,58-2.4,11.23-3.43,22.6-1.93,34,2.79,21,19.23,32.34,41.2,29.41,20.49-2.74,37.09-12.7,51.92-26.43,16.27-15.07,33.41-29.17,50.18-43.65,27.18-23.44,56.26-44.56,88.75-60.35,4.5-2.19,5.16-5,4.9-9.21-1.09-17.44,1.34-34.11,8.84-50.26,9.63-20.72,26.43-33.05,46.46-41.52,28.62-12.1,57.37-23.78,83-41.77,10.89-7.65,10.29-19.27-1.42-26.07s-24.67-8.24-37.79-8.88c-5-.19-10.03.01-16.76.01Zm29.3-45c-3.9-4.57-6.4-8-9.39-10.9-9.36-9.1-20.26-14-33.64-11.3-3.44.69-6.5,2.21-7.32,5.85-.92,3.84.69,7.85,4,10,2.28,1.7,4.92,2.84,7.71,3.33,12.11,2.09,24.38,2.64,38.64,3.01h0Zm-61,249.25c11,11,22.47,18.48,37.57,18.21,3-.06,6.5,0,7.71-3.68,1.28-3.93-.69-6.89-3.76-9-2.13-1.49-4.44-2.71-6.87-3.65-10.95-4.27-22.24-3.98-34.61-1.89h-.04Z"/>
  <path class="cls-1" d="m2598.28,331.04c-.93,13.78-3.27,27.44-7,40.74-6.28,22.09-15.69,42.75-25.59,63.41-8,16.79-18.3,32.34-25.85,49.38-3.15,7.11-7.6,13.73-10.85,20.94-.81,1.8-2.59,5.13-5.87,4.07s-2.74-3.84-3.11-6.72c-2.47-19.15,8.14-34,16.5-49.25,7.88-14.34,14.92-29,22.05-43.71,6-12.32,9.5-25.13,11.91-38.75,2.24-12.62.63-24.74-2.4-36-2.84-10.55-10.36-20-18-28.74-9.6-10.71-19.81-20.85-30.59-30.37-5.3-4.76-7.13-10.48-9.25-16.12-1.57-4.21-1.22-9.7-.14-14.25,2.81-11.84,6.51-23.47,9.8-35.2.34-1.2.6-2.24,2.1-2.4,1.8-.2,1.6,1.09,1.95,2.22,6,19.08,19.48,32.51,33.85,45.43,14.57,13.09,27.22,27.44,35.15,46,4.32,10.16,3.37,20.32,5.34,29.32Z"/>
  <path class="cls-1" d="m2307.52,304.89c-1-12.74,4.78-24.81,8.32-37.35,2.16-7.68,5.31-15.13,7-22.9,2.34-10.82-2.2-19.92-8.81-28.25-2.6-3.28-3.88-1.21-5.22.84-9.4,14.5-21.75,26.15-35.25,36.73-19.56,15.37-40.63,28.72-62.88,39.84-16.3,8.13-33,15.09-51,18.76-1.77.36-4,2.19-5,.4-1.19-2.14,1.42-2.74,3.08-3.65,14-7.61,28.07-15.18,41.93-23.07,20.23-11.37,39.85-23.79,58.78-37.2,16.06-11.53,31.53-23.65,43.91-39.33,2.42-3.06,1.52-4.24-.82-6-4-3-8.29-5.64-11.82-9.09-6.18-6-8.25-13.36-4.65-21.59,4.36-10,9.59-19.4,19.25-25.38,3.88-2.39,7.51-5.34,12.72-2.92,5.5,2.55,6.73,7.29,7.68,12.51,2.34,12.82-.33,25.19-3.53,37.43-.62,2.37-.91,3.86.75,5.64,15.28,16.35,13.62,34.42,6.09,53.57-5.29,13.43-11.46,26.81-10.5,41.86.12,1.83-.16,3.61.72,5.52,1.51,3.25,3.72,5.89,7,6.46,3.66.63,4.27-3.72,6.39-5.67.85-.77.53-2.7,1.17-3.87,1.09-2,2.17-5.23,4.95-3.94,2.58,1.2.81,3.77.2,6.06-2,7.4-5.86,13.71-10.28,19.76-2.85,3.89-7,7-11.56,4.88s-8.25-6.29-8.58-12.07c-.15-2.41-.04-4.83-.04-7.98Zm5-114.37c2.74-7.59,2.41-14.36.74-21.22-.8-3.3-2.12-5.77-5.9-6-4.86-.34-8.24,2.39-10.81,5.86-2.18,3-.65,6.09,1.69,8.36,4.44,4.23,9.09,8.26,14.31,13h-.03Z"/>
  <path class="cls-1" d="m254.34,309.18c1.14-6.13,6.62-6.95,9.92-8.6,29.39-14.51,57.72-31.06,84.79-49.54,18-12.42,35.6-25.66,50.1-42.49,4.84-5.63,2.38-8.66-2-11.94-4.84-3.62-10-6.89-13.19-12.23-2.68-4.49-2.35-8.93-.65-13.93,4.05-12.55,12.65-23.13,24.1-29.66,7-4,13.95,1.13,15.92,10,3,13.42.18,26.24-3.29,39-.67,2.49-1.44,4.14.6,6.25,14.76,15.24,14.29,32.62,7.13,51-4.58,11.79-9.28,23.58-11.17,36.2-.81,5.41-1.23,10.67,1.91,15.81,1.63,2.66,3.32,3.22,6.18,3.53,3.48.37,4.3-1.8,5.71-3.9,2-2.9,2.43-9.68,5.84-8.05,4.37,2.08-.52,6.79-1.48,10.33-1.78,6.11-5.13,11.65-9.7,16.08-6.69,6.77-14.63,4.59-17.57-4.69-3-9.45-1.46-18.77.86-28,2.83-11.33,6.59-22.41,11.22-33.13,6.09-14.06,4.25-26.56-5.79-38.37-3.24-3.81-4.57-2.2-6.29.28-22.31,32.24-54.65,51.91-87.77,70.91-12.88,7.37-26.45,12.85-39.88,18.73-7.68,3.35-16.44,4.27-25.5,6.41Zm157-122.67c2.41-7.03,2.63-14.62.63-21.78-.85-3.37-2.25-5.7-6-5.79-4.83-.11-8.13,2.67-10.67,6.2-2,2.8-.43,5.57,1.69,7.67,4.34,4.34,8.85,8.5,14.36,13.7h-.01Z"/>
  <path class="cls-1" d="m595.94,280.75c4.91-7.09,5.28-15.54,6-23.06.82-8.84,2.56-17.59,3.92-26.23,1.4-8.86,3.16-18.11,8.17-26.27,8-13.09,21.19-9.86,29.77-3.27,7.55,5.8,7.31,13.78,5.08,21.64-.8,2.82,1.63,7.38-2.81,8.49-4.28,1.07-4.07-4.43-6.93-5.89-1.77-1.09-3.45-2.34-5-3.72-7.24-5.54-12.6-4.11-15.79,4.25-3.28,8.61-4.44,17.66-5.82,26.71-2.52,16.62-2.06,33.73-8.35,49.76-2.22,5.66-5.36,10.77-8.13,16.11-1.17,2.24-3.11,3.64-5.85,3.17-3.57-.62-1.39-3.37-1.76-5.11-3.06-13.95-7.22-27.63-12.45-40.92-.95-2.89-2.13-5.69-3.54-8.38-1.93-3.27-2.3-11.45-8.93-3.44-1.5,1.8-3.61-.12-5.2-.9-5.45-2.67-10.96-5.2-16.54-7.6-9.64-4.14-13.2-14.9-7.11-23.37,1.84-2.67,3.35-5.56,4.48-8.6,5.45-14.56,15.2-12.48,24.48-3.86,10.78,10,17.4,23,23.35,36.39,3.37,7.73,4.78,16.14,8.96,24.1Z"/>
  <path class="cls-1" d="m1884.89,658.29c-11.39-3.63-16.13-13-12.64-23.22,2.04-6.42,5.45-12.31,10-17.28,3.69-3.9,3.69-9.24,5.35-13.91,3.41-9.59,6.5-11.11,14.66-5.78,16.35,10.7,29.3,24.08,32.88,44.25,1.92,10.87-3.36,19.56-9.5,27.67-2.16,2.86-6.07,2.33-9.28,1.43-6.32-1.79-12.79-3.31-18.46-6.79-3.25-2-5.17-.58-7.1,1.81-22.77,28.14-52.6,46.28-85.7,59.43-10.8,4.29-22.43,6.44-33,11.57-1.52.74-4.16,1.29-4.8-.93s1.08-3.4,3.32-4.51c15.84-7.86,31.55-16,47.29-24.06,17.6-8.87,34.01-19.92,48.86-32.87,5.99-5.3,11.58-10.92,18.12-16.81Zm25-28.42c-1.49,5.51-2.53,10.08-4.75,14.22-.84,1.57-1.28,2.9,1.17,3.82,5.54,2.08,10.92,4.58,16.45,6.7,1.2.46,3.19.58,4-.1,1.68-1.38-.13-3-.67-4.41-3.06-7.99-8.93-13.83-16.2-20.23Zm-10.31,5.34c0,.53,0,.05,0-.42-.4-4.48-1.42-9.21-6.69-9.47s-10.5,2.41-12,7.36c-1.29,4.3,4.57,5.05,7.24,7.38.81.72,2.21.74,3.29,1.2,6.9,2.95,7.75,2.43,8.16-6.05h0Z"/>
  <path class="cls-1" d="m1589.01,448.86c-.78,9.71-1.92,18.83-4.72,27.49-1.13,3.5-.24,5,1.79,7.28,9.39,10.4,12.79,22.44,9.3,36.19-.55,2.19-.26,5.62-3.33,5.39-2-.15-3.25-3.09-3.77-5.3-1.78-7.65-5.38-14.26-10-20.58-2.78-3.74-4.46-2.65-6.34,0-26.08,36.73-63.76,58.57-102.42,78.85-14.78,7.91-30.72,13.41-47.22,16.32-1,.18-2.62,1.85-3.49,0-1.1-2.39,1.63-2.68,2.64-3.25,10.69-6.1,21.39-12.19,32.32-17.83,20.42-10.55,40.16-22.39,59.07-35.46,19-13.07,37.76-26.84,52.19-45.42,2.33-3,1.54-4.12-.61-6.46-3.52-3.84-7.57-6.91-11.59-10.15-6.07-4.9-8-10.86-5.12-19,4.55-13,12.47-22.82,24.08-29.62,5.72-3.36,12-.17,14.38,6.28.61,1.5,1.09,3.05,1.41,4.64.62,3.7,1.02,7.46,1.43,10.63Zm-12.94,24.26c2-8,2.21-14.87.46-21.89-.9-3.58-2.45-6.42-6.35-6.39-4.54,0-8,2.75-10.53,6.3-2.16,3.07-.61,6,1.68,8.3,4.51,4.45,9.29,8.65,14.74,13.68h0Z"/>
  <path class="cls-1" d="m2080.59,943.04c18.7-.32,34.29-8.1,49-19.13,8.45-6.32,15.16-14.15,21.68-22,4.84-5.66,9.08-11.81,12.64-18.35,1.2-2.31,1.76-4.58,4.94-2.44,2.16,1.45,4.35,2.72,2.29,5.91-15.23,23.57-28.91,48.66-53.66,64-20.23,12.55-42.26,15.31-65.06,7.35-4.24-1.47-6.54-5.83-9.83-8.75-4.53-4,.14-7.39.91-11.13,1.67-8.25,3.58-16.31,9.12-23,1.16-1.4,1.47-2.52-.47-4-7.17-5.45-9.21-15.37-4.76-23.21,1.69-3,3.34-6.08,5.22-9,4.87-7.89,14.29-11.73,23.28-9.47,5.39,1.33,7.53,9.51,4.45,17-2.43,5.88-4.55,6.25-8.66,1.52-3.17-3.63-13.11-2.06-14.71,2.34-.69,1.89.92,2.55,2.05,3.15,6.64,3.53,13.48,5.08,20.16.35,6.44-4.57,14.38-6.49,20.38-11.82.92-.71,2.11-.96,3.24-.67,1.52.67,1.39,2.64.92,3.79-2.88,7.07-3.82,14.42-13.41,18-14.22,5.25-25.44,15.86-35.37,27.42-2.54,3-2.05,5.28,1.57,7.26,7.57,4.06,15.67,4.95,24.08,4.88Z"/>
  <path class="cls-1" d="m891.6,871.28c3.38,1.07,8.15-2.54,10.54,2.93,2.55,5.82.33,11.08-2.14,16-1.25,2.48-3.4,3.14-5.76-.42-3.71-5.62-10.55-5.13-14.95.08-2,2.3,0,3,1.22,3.71,6.31,3.57,13.06,5.48,19.46.89,6.59-4.72,14.75-6.61,20.81-12.26,2.26-2.11,4.21-1.48,4.41,2.27.33,6.2-5.43,15.94-11.12,18.11-15.15,5.78-26.76,16.34-37.49,27.95-4.73,5.13.5,7.25,3.92,8.64,13,5.28,26.55,5.37,39.73,1.18,26.85-8.53,45.86-27,60.79-50.08,1.62-2.5,4.17-4.35,4.84-7.64.52-2.5,2.82-3.19,5-1.67,1.94,1.32,3.68,2.54,1.71,5.65-15.72,24.87-30.28,50.66-56.84,66.25-10.64,6.12-22.52,9.76-34.76,10.66-13.58,1.1-26.75-3-37-13.43-3-3-2-5.85-.81-8.87,3.62-9.12,4.8-19.3,12.09-26.84,2.58-2.68-1.48-2.31-2.14-2.8-6.73-5.06-8.34-10.18-5.19-18.05,1.82-4.54,2.77-9.33,5.94-13.42,4.62-5.88,9.19-10.96,17.74-8.84Z"/>
  <path class="cls-1" d="m574.25,715.4c-1.95,11-6.2,20.63-17.12,25.29-10.52,4.48-24.15-2.19-24.81-19.8-.2-5.34-.52-10.69,1.07-16.16,1.44-5.39-.6-11.12-5.13-14.38-4.44-3.32-8.71.41-12.74,2.88-6.62,4.08-11,10.22-15.74,16.12-1.32,1.64-3.06,4-5.23,2.55s-1.69-4.76-.54-6.45c8.07-11.8,15.68-23.94,27.32-32.92,4.73-3.65,9.84-4.67,14.51-2.68,5.07,2.17,6.32,8,6.27,13.24-.07,6.85-2.11,13.64-1.23,20.54,1.26,9.89,7.65,18.19,18,15.69,6.8-1.63,14.46-14.53,11.76-21.54-2.61-6.75-4.35-13.78-7.39-20.48-2.62-5.77-2.12-13.32,1.29-19.79,2-3.71,3.58-3.79,5.86-.25,4.06,6.3,4.92,13.49,6.27,20.6,1.58,8.37,2.79,17,9.94,23,4.1,3.42,8.65,5.61,14.2,4.24,4.54-1.12,4.75-3.63,1.69-6.56-6.42-6.13-10.74-13.58-14.6-21.48-3.51-7.19,1.25-13.7,1.08-20.61,0-1.88,4-2.69,5.09-.4,5.71,12.18,17.55,20.89,20.74,34.13,2.61,10.69.22,22-6.49,30.72-8.38,11-22.65,9.33-31.42-2.92-.6-1.11-1.53-2.01-2.65-2.58Z"/>
  <path class="cls-1" d="m189.76,467.17c1.13-.05,2.23.36,3.05,1.14,13.61,11.16,27.21,22.32,41,33.29,3.23,2.58,2.57,5.61.9,7.81-8.7,11.46-17.62,22.74-26.77,33.84-2.32,2.8-5.34,3.92-8.86.19-10.08-10.66-22.81-18.16-34-27.48-2.21-1.83-4-3.94-6-5.91-1.35-1.16-1.5-3.19-.35-4.55,7.73-8.4,13.95-18,21-26.84,1.78-2.09,3.26-4.42,4.41-6.92.87-2.17,2.09-4.94,5.62-4.57Z"/>
  <path class="cls-1" d="m2679.38,840.89c-.11,5.09-3.09,7.44-5.08,10.08-7.22,9.58-15.1,18.66-22.43,28.17-3.12,4-6.35,3.47-9.24.7-11.78-11.29-25.43-20.25-37.95-30.6-3.3-2.72-3.76-5.16-.54-8.87,9.06-10.29,17.19-21.38,24.27-33.12,2.29-3.85,4.68-4.69,7.78-2.22,13.3,10.61,26.44,21.42,39.55,32.26,1.57,1.29,3.5,2.55,3.64,3.6Z"/>
  <path class="cls-1" d="m672.97,375.42c-.28,2.4-3,4.89-5,7.52-7.12,9.37-14.93,18.22-22.09,27.56-3.09,4-6.16,3.88-9.22,1-12-11.4-25.77-20.57-38.49-31.06-3.08-2.54-3.2-5-.29-8.38,9.16-10.51,17.39-21.79,24.6-33.72,2.13-3.6,4.81-4,7.44-1.9,13.65,10.93,27.1,22.1,40.55,33.27,1.3,1.06,3.23,2.09,2.5,5.71Z"/>
  <path class="cls-1" d="m1377.25,589.56c0,2.69-2.72,4.6-4.45,6.88-7.54,9.92-15.57,19.48-23.16,29.37-2.94,3.84-6,3.28-8.74.68-12.06-11.32-25.76-20.6-38.52-31-3-2.42-3.61-4.89-.57-8.37,9.18-10.49,17.44-21.76,24.67-33.68,2.16-3.57,4.73-4.32,7.35-2.23,13.85,11.07,27.45,22.43,41.09,33.75,1.17.94,2.77,1.9,2.33,4.6Z"/>
  <path class="cls-1" d="m996.94,516.62c.6,3.72-2.9,5.67-4.73,8.12-6.78,9.1-14.26,17.67-21.39,26.51-3.45,4.28-5.54,5.24-10.91.82-12.11-10-24.64-19.52-37.14-29-5-3.79-2.63-6.63-1.08-8.39,9.38-10.96,18.03-22.51,25.91-34.59,1.86-2.79,3.93-2.58,6.53-.5,13.12,10.43,26.4,20.66,39.5,31.11,1.67,1.34,4.21,2.61,3.31,5.92Z"/>
  <path class="cls-1" d="m609.05,895.49c2.31.15,3.73.13,5.25,1.38,10.53,8.7,21.13,17.31,31.92,25.67,3.75,2.9,2.83,5.16.42,8.17-10.14,12.67-20.36,25.29-30.15,38.23-3.17,4.2-4.83,3.79-8.69.68-10.8-8.71-22.06-16.87-33.36-24.93-3.1-2.21-4.6-3.65-1.73-7.16,10.18-12.47,20.11-25.15,30.3-37.61,1.67-2.05,3.03-5.2,6.04-4.43Z"/>
  <path class="cls-1" d="m172.43,372.87c3.69,2.81,8.11,5.59,11.84,9.11,8.7,8.22,17.66,16.11,27.59,22.81,5.19,3.5,5.9,6.89,1.71,12-7.58,9.28-14.48,19.11-21.84,28.57-6,7.66-8.1,7.58-15.18,1-10.23-9.48-21.12-18.21-32.6-26.13-4-2.75-4.69-6.3-1.67-9.51,10.16-10.75,17.78-23.34,26.39-35.21.84-1.1.72-3.47,3.76-2.64Z"/>
  <path class="cls-1" d="m978.66,422.86c-.59,1.21-1.26,2.39-2,3.52-8.56,11-17.25,21.88-25.68,33-2.85,3.76-6.13,3.48-9.1,1.22-12.53-9.57-24.84-19.45-37.27-29.17-3.85-3-2.65-5.83-.11-9,9.48-11.67,19.08-23.27,26.42-36.47,1.26-2.27,2.54-2,3.82-.75,12.22,11.85,25.82,22,39.1,32.6,1.72,1.57,3.33,3.26,4.82,5.05Z"/>
  <path class="cls-1" d="m1595.01,888.81c-11.13-4.07-23.88,0-30.26,9.41-1.45,2.14-2.69,5.44-5.58,4.05s-.86-4.3-.26-6.75c4.85-19.84,19.59-29.54,39.35-25.62,5.89,1.17,9.28,4.27,8,10.89-1.72,9.17-4.52,17.59-11.64,24.38-10.11,9.63-20.52,19.09-27.75,31.31-3.66,6.18-2.42,9.5,4.58,12.23,10.61,4.13,21,1.89,31.08-1.7,13.39-4.77,24.76-13.15,36.26-21.22,5.44-3.82,10.89-7.61,16.66-11.65,2.07,4.39.12,7.39-1.88,10.22-8.81,12.5-20.5,21.69-33.19,30.13-12.94,8.6-26.38,14.37-42.11,14.13-15.11-.22-23-9.57-20.58-24.31,2.75-16.92,11.41-30.25,23.44-42.18,4.38-4.31,9.25-8.09,13.88-13.32Z"/>
  <path class="cls-1" d="m556.47,945.44c-1,1.88-1.46,3.56-2.51,4.72-10.41,11.59-19.91,23.92-29.27,36.34-2.91,3.86-5.2,4-8.58,1.25-11.27-9.26-22.61-18.44-35-26.16-3.15-1.95-2.41-4.23-.67-6.21,10.92-12.49,21.66-25.13,31.58-38.44,2.21-3,4.92-3.76,7.94-1.4,11.21,8.73,22.37,17.52,33.49,26.37,1.12,1.08,2.13,2.26,3.02,3.53Z"/>
  <path class="cls-1" d="m462.36,665.57c-13.57-5.82-16.57-14-10.17-26.64,2.94-5.81,5.78-11.34,6-18.31.22-7.6,5-9.28,11.75-5.73,11.67,6.12,21.86,13.53,28.56,25.42,5.42,9.63,3.29,18.39-.76,27.46-1,2.35-2.75,2.77-5.08,2.9-6.42.47-12.87-.29-19-2.23-3.13-1-4-.37-5.46,2-19.53,31.78-48.62,52-81.71,67.44-1.89.88-3.73,1.87-5.59,2.83-1.57.81-3.36,3-4.79.52-1.06-1.8.43-3.41,2.23-4.58,8.65-5.61,17.31-11.18,25.8-17.07,20.67-14.35,40-29.9,54.63-50.68.81-1.14,2.07-1.93,3.59-3.33Zm16.82-26.26c-1,4.3-1.63,7.76-2.52,11.16-.44,1.67-.21,2.75,1.54,3.24,5.8,1.63,11.42,4.35,18.27,3.35-3.44-8.33-9.93-12.94-17.29-17.75Zm-7.34,7.73c-1.48-3.83-.82-9.49-7.38-9.37-4.55.08-9.13,3.34-8.61,6.9.88,6.05,8,5,12.49,6.67,3.35,1.26,2.72-2.2,3.5-4.2Z"/>
  <path class="cls-1" d="m1781.84,387.04c-1.63,4.05-2.68,8-4.69,11.37-3.84,6.41-11.12,9.59-16.92,8.07-6.7-1.77-11.42-7.72-11.86-15.9-.21-3.95-.72-8,.84-12,1.46-3.87.38-8.25-2.71-11-3.11-2.69-7-.37-10.47,1.64-6.35,3.66-9.17,10.75-15.44,15.36-1.37-2.85-1.59-5.19-.1-7.5,5.63-8.78,11.57-17.32,20-23.76,3.06-2.33,6.19-4.72,10.35-2.9s5.33,5.78,5.75,9.82c.13,2.37-.05,4.75-.54,7.08-.67,3.54-.74,7.16-.21,10.72,1.3,7.41,6.77,12.52,12,11.4,6.68-1.43,11.83-8.7,10.36-15.6-1.13-5.26-2.35-10.82-5.06-15.34-3.53-5.89-.23-11,0-16.49.14-1.24,1.14-2.21,2.38-2.31,1.81-.17,2.41,1,3,2.35,1.78,3.84,3.63,7.49,4.21,11.92,1,7.63,1.67,15.68,8.49,21.09,2.08,1.65,4.24,3.16,7,3.29,1.85.09,4,.61,5.32-1.24,1.52-2.21-.79-3.33-1.81-4.76-2.9-4.07-5.69-8.22-8.79-12.13-5-6.28-2.3-12.66-.17-18.79,1.08-3.09,3.85-2.29,5,.3,3.24,7.2,8.47,13,12.76,19.49,4.58,6.92,1.89,25.08-4.14,30.84-5.6,5.34-12.68,5.45-19.34.15-1.74-1.46-3.29-3.26-5.21-5.17Z"/>
  <path class="cls-1" d="m99.16,676.11c-.52-25.28,7.34-45.72,15.62-66.05,2.47-6.07,5.2-12,7.32-18.24.89-2.6,2-4.95,4.63-4.07,3.08,1,2.6,3.87,1.61,6.62-4.91,13.66-10.42,27.11-13.91,41.27-3.23,13.11-4.56,26,2.6,38.33,2.57,4.42,6.1,7.43,11.45,6.8s5.67-5.58,7-9.45c.47-1.35.78-2.74.95-4.16.28-2.43,2-2.27,3.69-2.22,2.09.07,1.92,1.7,2,3.09,1.06,12.32-1.8,24.65-8.18,35.24-6.52,10.68-17,10-26,.71-6.01-6.14-8.78-17.67-8.78-27.87Z"/>
  <path class="cls-1" d="m2531.2,933.27c-.69-21.78,6.51-39.22,12.79-56.84,3-8.35,6.38-16.56,9.61-24.82.94-2.41,1.81-5.77,5.13-4.4,2.45,1,1.54,4.44.92,6.43-2.23,7.19-5,14.2-7.47,21.33-5,14.55-10.13,29.08-8.18,44.89.8,6.46,2.7,12.47,7.64,17,6.84,6.29,13.44,4.07,15.59-5,.43-1.79-.35-3.6.89-5.48,1.11-1.68,2.08-2.23,3.93-2.05,2,.19,2.07,1.6,2.17,3.05.87,13.26-2.75,26.42-10.28,37.37-6.09,9.13-19.08,7.22-26.82-4.9-6.41-10.04-5.94-10.34-5.92-26.58Z"/>
  <path class="cls-1" d="m2209.99,637.29c-1.24-20.66,7-40.8,14.47-61.08,2.4-6.52,5.47-12.79,8.26-19.16.84-1.91,1.44-4.66,4.25-3.7,3.13,1.06,2,4.15,1.34,6.09-3.8,11.27-8.22,22.33-11.83,33.66-3.85,12.12-7.34,24.43-3.6,37.33,1.56,5.37,3.14,10.67,8.47,13.91,7.08,4.29,12.79,1.86,14.56-6.29.58-2.69-.9-7.57,3.48-7.22,4.56.37,1.89,5,2.07,7.62.73,10.58-2.26,20.38-6.86,29.86-6,12.33-22.09,9-27.47.89-5.89-8.86-7.14-13.72-7.14-31.91Z"/>
  <path class="cls-1" d="m1299.52,851.23c-1.16-20.5,5.46-38.9,12.16-57.23,3-8.29,6.81-16.32,10.33-24.43.88-2,1.35-5.4,4.59-4,2.74,1.15,1.73,4.12,1,6.26-4.25,12.39-9.11,24.55-12.88,37.12-4.21,14-6.47,27.84.67,41.56,2.68,5.15,6.66,8.87,12.85,7.89s7.06-6.3,7.37-11.33c.15-2.45.33-4.38,3.17-4.38,3.12,0,2.16,2.6,2.19,4.26.27,12.41-1.08,24.46-8.46,35-6.33,9.07-19.75,8.39-26-.8-6.42-9.35-7.88-19.54-6.99-29.92Z"/>
  <path class="cls-1" d="m2386.84,862.86c-.3,8.93-5.16,15.11-12.23,19.6-28.06,17.82-56.23,35.46-84.32,53.23-5.89,3.73-10.88,8.87-18.6,11.9,1.94-8.52,5-15.42,11.7-19.95,12.48-8.38,25.1-16.55,37.77-24.64,19-12.14,39.21-22.4,57.28-36,2.4-1.84,5.8-1.74,8.4-4.14Z"/>
  <path class="cls-1" d="m1719.73,596.16c2.47-11.21,9-18.6,17.81-24.07,12.32-7.61,24.46-15.49,36.62-23.37,12.72-8.26,26.42-15,39.25-23.09,7.13-4.49,13.28-10.52,22.24-13.87-1.46,9.94-7.37,15.94-14.64,20.57-27.71,17.62-55.63,34.93-83.37,52.52-5.8,3.67-10.52,9.06-17.91,11.31Z"/>
  <path class="cls-1" d="m2105.2,195.39c3.2-11.92,9.82-19.11,19.44-24.79,14.35-8.48,27.75-18.55,42-27.24,15.65-9.54,31.94-18,46.65-29.1,1.56-1.18,5.14-5.06,7.63-2.29,1.93,2.14-1.62,4.91-2.57,7.46-2.09,5.58-7.09,8.79-11.68,11.73-27.66,17.71-55.61,35-83.33,52.59-5.72,3.63-10.5,8.63-18.14,11.64Z"/>
  <path class="cls-1" d="m1216.41,876.79c-2.16,10.7-8.32,16.68-15.91,21.49-27.55,17.45-54.76,35.44-82.75,52.21-5.72,3.42-10.33,8.66-17.47,11.08,2.17-11.62,9.25-18.64,18.22-24.35,12-7.65,23.56-16.14,36-23,13.33-7.33,25.77-16.08,39.2-23.26,7.4-3.92,13.44-10.35,22.71-14.17Z"/>
  <path class="cls-1" d="m2657.73,462.83c-2.66,9.06-7.25,15.35-14.5,19.87-26.05,16.23-52.07,32.52-78.06,48.85-6.54,4.12-12.86,8.59-19.11,13.15-1.34,1-2.33,1.34-3.77.85,4.42-16.09,6.81-15.76,26.17-28.74,10.76-7.21,22.1-13.56,33.13-20.37,15.61-9.64,31.16-19.39,46.79-29,2.64-1.62,5.58-2.77,9.35-4.61Z"/>
  <path class="cls-1" d="m3521.39,1006.23c.24.84,0,1.38-.94,1.46-.69.06-1.39,0-2.09,0h-725.88q-3.5,0-3.5-3.5V3.02c0-2.26.44-2.85,2.8-2.85,242.31.07,484.62.11,726.93.11.89,0,2.57-1.11,2.74,1.08-.91.77-.45,1.81-.45,2.7v999.18c-.05,1.01-.54,2.12.39,2.99Zm-731.31-502.37v498.46c0,4.38-.48,3.9,3.93,3.9h721.91c4.42,0,4,.48,4-3.87V5.17q0-3.77-3.8-3.77h-724.31c-1.19-.07-1.8.39-1.74,1.66.05.87,0,1.74,0,2.61v498.19Z"/>
  <path class="cls-1" d="m3521.39,1006.23c-.93-.87-.44-2-.44-3V4.05c0-.89-.46-1.93.45-2.7,0,1,.09,1.92.09,2.87v998.84c0,1.08-.06,2.12-.1,3.17Z"/>
  <path class="cls-1" d="m2790.08,503.86V3.05c-.06-1.27.55-1.73,1.74-1.66h724.27q3.8,0,3.8,3.77v997.18c0,4.35.47,3.87-4,3.87h-721.88c-4.41,0-3.93.48-3.93-3.9,0-166.14,0-332.29,0-498.45Zm32.54,17.47v455c0,1.85-.18,3.21,2.58,3.2,37.61-.1,75.21-.1,112.82,0,2,0,2.86-.62,3.49-2.54,9.96-31.16,26.7-59.74,49-83.67,83.4-89.63,223.67-94.67,313.3-11.27,27.85,25.91,48.56,58.56,60.14,94.79.61,1.92,1.47,2.72,3.66,2.71,39-.08,78-.08,117,0,2.56,0,3.36-.49,3.36-3.26-.07-303.07-.09-606.14-.07-909.22v-1.57c.11-1.23-.44-1.64-1.66-1.72-4.95-.32-9.9-.7-14.83-1.15-8.16-.74-16.38-1.09-24.45-2.42-17.16-2.86-34.18-6.57-51.11-10.62-19-4.53-38.09-8.35-56.81-13.83-14.63-4.29-29.27-8.36-44.62-9.42-26.07-1.81-51.53.67-76,10.2-23.76,9.25-44.53,22.92-61.34,42.28-1.41,1.63-2.18,1.71-3.63,0-4.68-5.52-9.81-10.63-15.35-15.28-21.28-17.64-45.38-29.37-72.54-34.58-24.28-4.84-49.31-4.44-73.43,1.16-11.51,2.71-22.74,6.6-34.24,9.39-21,5.08-42,10-63.11,14.51-13.59,2.93-27.13,6.3-41.11,7.24-8.94.61-17.85,1.69-26.78,2.52-4.23.4-4.24.35-4.24,4.64l-.03,452.91Zm330,458.14h104.42c1.45.13,1.9-.49,1.5-1.87-2-6.93-4-13.88-6.68-20.62-.85-2.17-2.37-2.59-4.41-1.64s-3.82,1.71-5.73,2.56c-15.86,7.01-32.5,12.11-49.56,15.2-1.75.32-2.69.1-2.45-2,.18-1.3.18-2.62,0-3.92-.37-2.28.67-2.95,2.75-3.33,17.85-3.22,35.18-8.82,51.54-16.64,2.75-1.31,3.2-2.37,2-5.16-6.25-14.3-13.9-27.94-22.84-40.73-.93-1.34-1.76-1.43-3.25-1.05-14.11,3.52-28.5,5.8-43,6.82-16.35,1.19-32.76,1.08-49.09-.3-14.15-1.16-28.17-3.53-41.92-7.08-1.13-.49-2.44-.01-3,1.08-2.34,3.56-4.81,7.05-7.08,10.67-6.14,9.82-11.55,20.09-16.18,30.71-1.12,2.57-.64,3.76,1.94,5,1.25.61,2.53,1.16,3.8,1.73,16.18,7.4,33.27,12.6,50.83,15.45,4.95.8,5,.74,5,5.81v2.61c0,1.11-.25,1.56-1.52,1.27-2.21-.48-4.47-.73-6.7-1.13-18.78-3.42-37.04-9.26-54.32-17.38-2.88-1.34-4-.79-5.17,2.17-2.35,6.1-4.1,12.4-6,18.65-.93,3.05-.87,3.08,2.38,3.08l102.74.04Zm159.23,0h39c4.87,0,4.89,0,3.27-4.67-8.47-24.44-21.33-47.12-37.94-66.94-1.1-1.33-1.75-1.24-2.82-.06-1.82,2-3.74,3.91-5.67,5.8-13.56,13.22-28.76,24.64-45.22,34-3.62,2.07-3.72,2.41-2.29,6.44,2.67,7.55,5.29,15.13,7.23,22.9.51,2,1.35,2.58,3.35,2.57,13.67-.07,27.37-.03,41.08-.03h.01Zm-318.16,0h41.6c1.29,0,2.31,0,2.7-1.65,1.92-8.32,4.84-16.34,7.59-24.41,1.15-3.37.93-3.86-2.2-5.64-18.45-10.48-35.32-23.52-50.11-38.73-1.95-2-3.09-2-5,.22-3.85,4.5-7.45,9.22-10.79,14.11-11.37,16.42-20.38,34.35-26.77,53.27-.93,2.77-1,2.8,2.12,2.81l40.86.02Zm4.25-79.93c-.26,1.45.83,2.18,1.67,3,13.71,14.19,29.3,26.42,46.35,36.35,3.49,2,4.58,1.87,6.21-1.76,6.03-13.43,13.22-26.31,21.49-38.49,1.12-1.63.9-2.35-.93-2.93-4.56-1.47-9.01-3.26-13.33-5.33-10.08-4.81-19.52-10.51-25.93-20-1.13-1.68-1.91-1.05-3.07-.22-11.28,8.08-21.81,17.15-31.47,27.11-.72.53-1.1,1.39-1.01,2.28h.02Zm259.16,40.7c1.34-.1,2.59-1.46,4.07-2.31,16.92-9.97,32.38-22.24,45.92-36.47,1.24-1.28,1.67-2.15.2-3.63-9.52-9.72-19.81-18.65-30.78-26.71-1.11-.81-1.84-1.33-2.89.2-4.09,5.93-9.65,10.24-15.72,14-7.77,4.67-16.06,8.39-24.71,11.09-1.77.58-2.25,1.17-1,2.84,1.67,2.22,3.14,4.6,4.63,7,6.27,10.05,11.85,20.51,16.7,31.32.6,1.28,1.15,2.73,3.56,2.68h.02Zm-83.85-107.48c-1.17-.33-2.4.31-2.8,1.46-.59,1.58.18,2.68,1.45,3.55.5.34,1,.71,1.49,1,9.44,6.59,18.35,13.91,26.66,21.88,8.19,7.96,15.81,16.5,22.79,25.55.76,1,1.18,2.48,3.23,1.82,8.37-2.73,16.6-5.77,24.24-10.2,5.34-3.09,10.62-6.31,14.52-11.33,1.31-1.68,1.25-2.32-.61-3.46-27.58-16.99-58.73-27.35-91-30.26h.03Zm-41.61.07c-5.56.59-11.78,1.37-18,2.46-18,3.24-35.48,8.86-52,16.7-6.64,3.09-13.09,6.56-19.32,10.41-.67.42-2.07.64-1,2,1.61,2.05,3,4.28,5,6,9.65,7.91,20.84,12.81,32.54,16.72,1.42.7,3.15.17,3.93-1.21,7.65-9.85,16.06-19.08,25.16-27.61,8.05-7.47,16.64-14.35,25.68-20.59,1.25-.71,1.82-2.22,1.35-3.58-.32-1.34-1.49-1.44-3.36-1.29h.02Zm26.54,37.21h0c0,8.44.06,16.87,0,25.3,0,2.14.54,2.93,2.77,2.81,7.45-.42,14.88-1,22.3-1.74,9.93-1.07,19.78-2.7,29.53-4.86,2.14-.47,2.32-1,.9-2.79-10.21-12.62-21.7-24.14-34.28-34.39-5.32-4.37-10.9-8.43-16.7-12.15-2.44-1.55-4.49-.78-4.5,1.7-.04,8.75-.02,17.45-.02,26.12Zm-11,.2v-25.36c0-1.18.38-2.59-1.12-3.18-1.33-.52-2.46,0-3.65.76-19.12,12.71-36.15,28.31-50.48,46.25-1.38,1.69-.58,1.84.83,2.24,4.44,1.25,9,2,13.51,2.89,12.63,2.37,25.41,3.39,38.21,4.28,2.22.15,2.78-.61,2.75-2.77-.09-8.31-.02-16.7-.02-25.07l-.03-.04Z"/>
  <path class="cls-1" d="m3352.62,431.35c-.1.37-.17.75-.21,1.13.32,15.78.63,31.56.94,47.35,0,1.38.5,1.8,1.84,1.8,9,0,17.91.32,26.85-.37.52-.05,1.05-.08,1.57-.07,3.12.1,3.51.65,2.44,3.62-1.3,3.61-2.77,7.15-3.95,10.79-.61,2.05-2.31,3.59-4.41,4-7.12,2-14.2,4.12-21.33,6.09-1.88.52-2.65,1.29-2.6,3.4.29,12,.43,24.08.52,36.12,0,1.45.38,2.08,1.8,2.18,7.22.51,14.44,1,21.52,2.59.61.06,1.23-.1,1.73-.46,4.79-2.5,9.75-4.64,14.86-6.39,1.68-.54,1.7-1.2.9-2.6-2.95-5.17-5.44-10.39-5.11-16.71.65-12.1,10.48-19.15,21.83-15,8.54,3.15,16.24,8.25,22.47,14.89,2.89,3,4.41,6.49,2.49,10.7-.24.57-.39,1.16-.45,1.77-.86,7-4.59,10.68-11.74,11.78-5,.77-9.82,3-14.74,4.4-1.53.45-2.13,1.16-1.88,2.78.24,1.65.13,3.32-.34,4.92-.45,1.55-1.42,1.75-2.37.4-.63-.83-1.08-1.79-1.31-2.81-.45-2.51-1.66-2.61-3.65-1.61-1.86.95-3.79,1.77-5.77,2.43-1.8.6-1.58,1.26-.65,2.59,5.41,7.75,6.62,16.51,5.82,25.69-2.16,24.78-15.84,42.55-34.84,57.06-2.65,2-2.67,2.57.4,4,4.71,2.25,9.69,2,14.61,1.09,7.68-1.46,14.76-4.58,21.64-8.21.87-.46,1.38-.92,1-2-3.15-9.87-1.36-19.54,1.7-29,2.83-8.74,7.32-16.59,14.74-22.38,3.93-3.15,9.08-4.35,14-3.26,4.44.89,6.55,3.2,6.58,7.73.09,3.93-.57,7.85-1.95,11.53-.59,1.51-1.06,2.24-2.7.92-4.46-3.58-9.29-3.52-14.18-.93-10,5.33-13.94,15.13-13.25,25.85.16,2.47,1.68,4.54,3.08,6.55.76,1.1,1.65.58,2.56.31,4.96-1.64,10.07-2.78,15.26-3.41,9.33-.91,15.35,3,18.28,12.64,2.33,7.67,2.46,15.47-.72,23-3.12,7.41-9.67,10.23-17.35,7.62-6-2.05-10.37-6.26-14.11-11.2-1.97-2.56-3.7-5.29-5.19-8.16-.78-1.55-1.42-1.63-2.92-.72-8.4,5-17.1,9.38-26.78,11.45-4.72.95-9.59.78-14.23-.51-6.65-1.72-10.65-6.39-13.05-12.52-.77-2-1.45-2.19-3.36-1.39-17.35,7.25-34.94,8-52.73,1.62-2.73-.94-5.29-2.29-7.61-4-1.52-1.16-2.29-.78-3.36.55-6.67,8.29-13.29,16.63-20.43,24.52-4.66,5.15-9.93,9.52-16.72,11.72-5.6,1.82-10.72.6-15.41-2.52-8.05-5.37-12.2-13.15-13.34-22.65-1.24-10.45,1.25-20.42,3.85-30.38.18-.68.37-1.35.52-2,0-.14-.1-.31-.22-.67-4,2.46-7.88,5.06-12,7.31-15.35,8.48-31.18,15.91-48.22,20.35-11.88,3.1-23.65,2.88-34.82-3-1.39-.73-1.88.1-2.59.84-6.22,6.63-13.28,12.42-21,17.22-11.57,7.28-24.91,11.25-38.57,11.48-10.66.15-21-1-30.79-5.69-13-6.3-20.45-17-24.18-30.58-4.56-16.54-4.16-33.27-1.26-50,1.19-6.69,2.95-13.26,5.26-19.65.41-1.05.37-2.23-.12-3.25-2.51-6.04-3.96-12.47-4.27-19-1.21-16.88-1.94-33.78-2.17-50.7-.06-4.42-2.24-8.18-3-12.38-1-6-1.16-12,.69-17.85.7-2.22.99-4.55.85-6.88-.45-9.4-.67-18.81-2.13-28.14-1.12-7.84-2.82-15.59-5.09-23.18-.91-2.73-.88-5.69.08-8.41.86-2.56,1.81-5.08,2.73-7.61.23-.63.28-1.53,1.16-1.52s1,.9,1.25,1.5c2.58,5.72,4.44,11.75,5.51,17.93,2.47,13.2,3.91,26.57,4.29,40,0,.63-.36,1.52.53,1.82.67.23,1.06-.47,1.52-.85,9.82-8,21.09-10.51,33.53-9.3,11.87,1.14,23.11,5.91,32.18,13.65,1.15.95,3.28,2.05,2.51,3.48-.67,1.24-2.72,0-4.05-.51-14.83-6-29.83-5-44.9-1.14-6.44,1.55-12.63,3.99-18.4,7.25-1.63,1-2,2.16-2.16,4-.68,7.31,2.92,12.88,7,18.3,6.47,8.62,14.57,14.92,25.17,17.66,8.13,2.21,16.76,1.67,24.55-1.53,8.37-3.39,16-8,23.74-12.61,6.52-3.86,13.05-7.71,19.58-11.55,1-.56,2.11-1.5,3.08-.54s.21,2.14-.34,3.13c-2.17,4-4.35,7.97-6.56,11.9-1.2,2.14-2.95,3.92-5.06,5.16-16.73,10.22-33.53,20.32-49.85,31.18-10.07,6.64-18.97,14.91-26.32,24.48-.63.84-1.19,1.72-1.69,2.64-2,3.64-1.77,4.15,2.48,4.55,12,1.13,22.13-2.75,30.75-10.95,3.92-3.72,7.79-7.5,11.68-11.26.4-.46.85-.87,1.34-1.23.88-.56,1.84-1.15,2.91-.48s.77,1.74.57,2.62c-.75,2.88-.75,5.9,0,8.78,1.54,5.56,5,8.34,10.76,8.48,9.5.23,18.96.93,28.39,2.09.72.08,1.6.7,2.17-.16s-.29-1.45-.62-2.11c-3.73-7.37-3.86-15.3-3.42-23.26.79-12.45,3.65-24.69,8.44-36.21.61-1.49,1-3.15,2.51-4.4.85,1.13.36,2.18.07,3.19-2.76,8.9-4.81,18.01-6.14,27.23-.51,3.88-.83,7.84.14,11.69,1.77,7.93,9.64,12.93,17.58,11.15.13-.03.26-.06.39-.09,9.08-1.88,17.18-6.15,25.11-10.69,19.69-11.27,38.41-24,56.78-37.32.7-.51,1.36-1.09,2-1.67,4.31-3.78,4.36-5.94-.08-9.68-6.66-5.61-14.47-9.33-22.23-13.1-10.35-5-20.75-10-29.49-17.67-1-.89-1.43-.44-2,.42-2.14,3.29-4.24,6.6-6.49,9.82-.89,1.28-.31,1.94.49,2.89,5.15,6.18,10.17,12.52,12.19,20.5,3,11.69,2.51,23.36-4.68,33.32-6.21,8.59-15.38,13.9-25.72,16.46-8.3,2.06-13.95-2.87-14.72-11.78-1.19-13.71,2.41-26.23,9-38,2.3-4.1,4.65-8.18,7.11-12.18.73-.83.65-2.09-.18-2.82-.03-.02-.05-.05-.08-.07-6.27-6.68-11.98-13.87-17.06-21.49-1.29-1.76-2.76-3.38-4.38-4.84-1.86-1.76-2.76-4.31-2.42-6.85.35-4.08,1.06-8.11,2.14-12.06.44-1.6,1.06-1.81,2.35-1,3.91,2.44,8,4.66,11.68,7.41,2.33,1.73,2,5,2.94,7.61.16.42-.34.53-.67.56-2.86.27-1.53,1.57-.63,2.65,4.45,5.38,9.39,10.34,14.74,14.82,1.22,1,1.71.6,2.4-.44,2.16-3.28,4.32-6.55,6.57-9.76.72-1,.43-1.67-.35-2.46-2.91-3.01-5.6-6.23-8.05-9.62-1.16-1.43-2.61-2.6-4.26-3.42-2.05-1.1-3.26-3.31-3.07-5.63v-12.56c0-2.53.52-2.91,2.79-1.71,8.46,4.44,17.65,7.47,25.51,13.07,1,.68,1.36,0,1.92-.55,2-2,4.08-4,6.44-6.3-.87,3.95-2,7.83-3.4,11.62-.66,2.08-1.47,4.1-2.42,6.06-.89,1.7-.77,2.6,1,3.72,7.08,4.51,14.68,8,22.2,11.62,5.1,2.47,10.08,5.15,15.14,7.69,8.07,4,11.91,10.86,13,19.55,1,7.87-.39,15.44-2.73,22.9-1.23,3.9-4,6.67-7,9.29-8.18,7.25-17.15,13.44-26.18,19.54-14.44,9.75-28.63,19.89-44.33,27.62-4.1,2.08-8.48,3.57-13,4.43,1.49,1.8,2.92,3.39,4.2,5.08,5.78,7.67,7.64,16.38,7.18,25.84-.47,11.19-3.62,22.1-9.18,31.82-1.22,2.14-.13,2.5,1.55,2.85,8.66,1.73,17.6,1.52,26.17-.6,18.58-4.31,35.64-12.3,52.06-21.8,5.4-3.03,10.63-6.37,15.65-10,4-3,3.91-3.8-.58-5.8-7.34-3.26-15.16-5.09-22.86-7.27-7-2-13.91-3.87-20.86-5.83-3.41-1-4.37-2.36-3.36-5.74,2.5-8.3,3.83-17.1,8.3-24.64,7.3-12.29,17.05-22.29,30-28.74,7.45-3.72,11.88-2.13,16.07,5.09,1.57,2.71,3.27,5.36,4.73,8.12,4.52,8.52,12.83,11,21.56,9.61,7.29-1.18,12.95-5.49,16.94-11.36,11.19-16.44,26.23-29.89,43.81-39.18.6-.32,1.33-.48,1.68-1.16,0-.57-.43-.68-.9-.67-19.89.07-39.75-1-59.63-1.22-4.89-.05-5-.32-3.53-4.85.89-2.73,2.06-5.4,2.71-8.18,1-4.15,3.73-6.45,7.35-8.14,14.57-6.61,27.79-15.85,39-27.26,7.1-7.33,12.33-16,17.79-24.51,3-4.69,5.8-9.53,9.31-13.88.65-.82.95-1.86.82-2.9-.57-11.67-1.49-23.31-2.49-34.95-1.19-13.9-3.18-27.69-4.7-41.54-.77-7,.93-14.05,2.12-21,.7-4.1,1.55-8.18,2.6-12.28,1.73,3,2.21,6.38,2.8,9.64,3.13,17.17,4.68,34.52,6,51.9,1.08,14.61,1.76,29.24,2.45,43.86-.09.76.22,1.52.82,2,4.78,3.39,6.58,8.53,7.49,13.91,1.19,7.86.7,15.89-1.44,23.55-.31,1.21-.47,3.12-2,2.94s-1.28-2.05-1.33-3.32c.03-3.67-.47-7.32-1.46-10.85-.13-.6-.62-1.05-1.23-1.13Zm-284.35,232.57c3.28.06,6.57-.22,9.79-.85,14.19-2.24,26.91-8.09,38.65-16.26,1.45-1,1.65-1.68.55-3.2-4.72-6.75-7.42-14.7-7.8-22.93-.92-11.66.24-23.4,3.44-34.65.48-1.61.23-2.27-1.67-2.48-7.71-.88-15.45-1.19-23.2-1.46-5.15-.19-9.5-2-12.22-6.74-1.45-2.8-2.31-5.86-2.54-9-.13-1.11.6-2.71-1-3.13-1.46-.37-2.34.88-3.21,1.85-.29.33-.57.67-.85,1-5,5.76-9.78,11.84-16.64,15.7-9.36,5.26-18.92,6.83-28.81,1.59-1.63-.86-1.74.22-2.09,1.18-5.2,14.1-8.05,28.5-5.38,43.54,2.47,13.95,9.63,24.47,22.82,30.42,9.03,4.13,18.73,5.1,30.16,5.42Zm204.14-97.69c-.43.12-.85.28-1.25.47-8.65,5.62-21.89,3.42-29.1-5.75-2.51-3.24-4.85-6.61-7-10.1-4.11-6.58-6.13-7.28-12.91-3.56-9.29,5.23-17.52,12.15-24.27,20.39-1.17,1.41-2.13,2.99-2.83,4.68-.69,1.62-.46,2.39,1.55,2.36,3.83-.08,7.83-.66,11.47.2,9.88,2.35,19.71,5.1,29,9.34,6.5,3,9.05,8.44,7.55,15.44-1.58,7.74-5.45,14.82-11.1,20.34-3.29,3.05-5.55,7.06-6.45,11.46-1.75,8.26-3.91,16.42-3.77,25,.06,4.26.63,8.37,3,12,2.33,4.03,6.78,6.34,11.42,5.94,5.59-.31,10.14-3,14.42-6.17,10-7.42,17.33-17.36,25.35-26.65.92-1.06.25-1.69-.3-2.49-2.98-4.41-5.18-9.3-6.52-14.45-4.29-16.14-4.16-32.37-.62-48.62.67-3.22,1.52-6.38,2.36-9.83h0Zm.83,28.95c-.04,3.14.16,6.28.59,9.39,1.32,9.1,4.5,17.29,11.27,23.85,1.47,1.43,2.12,1.27,3.41-.2,16.87-19.34,34.69-37.74,54.46-54.16,2.42-2,3.4-4,3.12-7.1-.16-1.8-.41-2.53-2.46-2.61-4.6-.19-8.9-2.35-11.8-5.93-2.47-3.05-4.38-6.51-5.63-10.23-.25-.64-.25-1.54-1-1.66-1.1-.16-1.07,1-1.35,1.62-2,4.65-4.26,9.17-7.79,12.91-4.38,4.95-11.1,7.14-17.56,5.73-6.6-1.27-9.84-6.09-11.57-12.16-.16-.58-.06-1.36-.76-1.54s-1,.61-1.23,1.1c-6.97,12.85-11.65,26.23-11.7,40.99Zm81.66,8.17c.43,10.22.78,18.22,1.09,26.23.08,2,.54,2.74,2.64,1.56,5.07-2.69,9.92-5.79,14.5-9.26,8.1-6.44,15.48-13.52,20.16-23,2.1-3.96,2.63-8.57,1.49-12.91-2.49-9.32-8.81-15.13-17.43-18.79-.65-.31-1.41-.25-2,.15-6.57,3.58-13.16,7.11-19,11.91-1.05.76-1.63,2.01-1.55,3.3.14,7.69.1,15.35.1,20.81h0Zm-31.77,36.94c7.78.07,15.51-1.2,22.86-3.76,1.68-.56,2-1.33,1.89-3-.38-5.56-.84-11.12-.89-16.7-.1-9-.45-18-.69-26.94,0-.5.25-1.12-.28-1.44-.75-.45-1.07.33-1.49.69-2.55,2.25-5.1,4.5-7.6,6.8-13.38,12.28-25.75,25.54-37.9,39-1.58,1.75,0,1.79,1,2.1,7.48,2.3,15.28,3.39,23.1,3.25h0Zm-20.62-160.1c.38.15.77.26,1.17.34,12.91-.09,25.81.27,38.7.84,2,.09,2.26-.68,2.22-2.4-.36-17-.66-34-1-51,0-.7.43-1.79-.6-2-.82-.18-1.27.79-1.81,1.33-.24.26-.46.53-.66.81-5,6-8.23,13.11-12.15,19.79-5.48,9.33-10.95,18.65-19,26.08-2.19,1.99-4.38,3.96-6.87,6.21h0Zm43.06,55.2h-.45c0-7.85,0-15.7,0-23.55,0-1.39.06-2.41-2-1.55-9.3,3.93-18.55,8-27.16,13.32-8.19,5.05-15.6,11.26-22,18.43-1.28,1.43-1.16,2.48-.12,3.8,1.64,1.96,4.02,3.17,6.57,3.34,7.9,1,14.06-2.25,19.29-7.84,3.73-4,6.38-8.69,8.89-13.48.47-.9,1-2.08,2.27-1.79,1.47.32.94,1.65,1,2.62-.03.69-.13,1.38-.29,2.06-1.35,7.4,3.55,14.5,10.95,15.85.35.06.7.11,1.05.15,1.5.19,2.05-.14,2-1.72-.06-3.18,0-6.41,0-9.64h0Zm-202,76.43c0-2.83-.48-5.64-1.45-8.3-4.08-10.58-12.46-15.87-22.86-18.71-1.46-.4-1.74.53-2,1.66-1.76,7.21-2.88,14.44-2.16,21.93,1,10.5,5.29,19.15,13.64,25.71,1.09.86,1.78,1.06,2.79-.13,2.34-2.58,4.53-5.29,6.54-8.13,2.91-4.47,5.42-9.13,5.5-14.03h0Zm-.12-83.54c11.12-1.36,20.1-6.68,27.57-14.82,1.1-1.2.64-2.37,0-3.59-4-7.46-9.57-13.64-15.79-19.29-.93-.86-1.66-1.11-2.55.07-7,9.17-13.08,18.87-16.82,29.85-1.36,4,.58,6.84,4.74,7.57.95.12,1.9.19,2.85.21h0Zm-125.81-14c-.72.94-.37,1.83-.34,2.64.33,9.57.76,19.13,1,28.7.12,4.7,1.03,9.34,2.7,13.74.27.68.3,1.75,1.19,1.87s1.07-1,1.38-1.63c5.01-9.88,11.51-18.93,19.27-26.84,1.56-1.62.63-1.81-.71-2.24-6.55-2.16-12.59-5.62-17.78-10.16-2.28-1.96-4.45-4.03-6.71-6.08h0Zm382.7,10.25c-4-.1-4.67.47-3.74,2.5,1.7,3.71,3.56,7.35,5.3,11,.52,1.09,1.13,1.31,2.27.87,4.22-1.6,8.48-3.11,12.72-4.63,2.09-.74,1.89-1.73.33-2.84-5.01-3.59-10.79-5.96-16.88-6.9h0Zm27.59,125.67c-1.82-.08-3.65.04-5.45.37-1,.27-1.2.66-.48,1.39,3.87,4,8.25,7,14.07,7,1.69,0,3.55,0,4.16-1.89s-.65-3.49-2.31-4.51c-3-1.8-6.5-2.63-9.99-2.36h0Zm-262.17-210.16c2.21,2,3.88,3.46,5.56,4.93.56.49,1.08.49,1.47-.26.69-1.31,1.46-2.58,2.1-3.91.32-.68.1-1.29-.81-1.06-2.48.64-5,.11-8.32.3Z"/>
  <path class="cls-1" d="m2849.97,298.2c2.12,4.24,3,8.49,4,12.7,3.29,14.29,4.93,28.82,6.33,43.4,2.33,24.15,2.9,48.38,3.75,72.61.31,8.8,0,17.62.67,26.41.11,1.45.29,1.93,1.77,1.09,13.22-7.48,27-7,40.95-2.61,1.81.56,2.33.75,2.22-1.6-.57-12.28-1-24.57-1.31-36.87-.41-18.05-.59-36.1-.94-54.16,0-6.28-.9-12.53-2.66-18.56-1-3.28-.07-6.42.67-9.49,1.48-6.18,3.28-12.28,5-18.41.2-.74.26-1.78,1.23-1.74s1,1.09,1.2,1.8c2.3,8.4,4.66,16.78,6.81,25.21,2.89,11.3,5.63,22.63,8.38,34,.53,2.19.79,4.45,1.13,6.69.15,1,.4,2.41-.56,2.9-1.11.58-1.81-.74-2.42-1.49-1.95-2.46-3.71-5.07-5.26-7.8-.28-.46-.39-1.34-1.21-1.08s-.47,1-.46,1.59c.15,20.33.65,40.65,1.61,60.95.37,7.66.54,15.34.7,23-.1,1.4.58,2.73,1.77,3.47,1.94,1.18,3.68,2.66,5.17,4.38.35.47,1.06.89.62,1.54s-1.13.38-1.7.23c-1.1-.24-2.18-.58-3.23-1-1.59-.72-2.32-.67-2.22,1.43.62,12.63,1.18,25.26,1.68,37.9.09,2.45,1.29,1.47,2.3.88,7.83-4.54,15.65-9.11,23.46-13.71,3.46-2,6.89-4.09,10.36-6.08.85-.49,1.85-1.44,2.82-.41.76.81.26,1.85-.2,2.68-2.42,4.44-4.84,8.88-7.36,13.25-1.17,1.86-2.8,3.38-4.73,4.42-5,3-9.95,6.09-15,9.07-1.65,1-1.67,1.65-.1,2.74,6.73,4.67,14.25,7.16,22.24,8.56,7.26,1.28,14.73-.02,21.13-3.67,5.44-2.92,7.55-7.3,7.74-13.11.22-8.02.03-16.05-.56-24.06-.61-9.42-1.25-18.82-1.92-28.21-1.12-16.35-2.29-32.7-3.35-49.05-.93-14.53-2-29.05-2.6-43.6-.27-6.16.2-12.4-1.47-18.46-.07-.43-.19-.85-.35-1.25-2.53-4.44-1.15-8.75.47-13,1.08-2.85,2.25-5.66,3.39-8.49.32-.8.54-2,1.46-2,1.12-.05,1.35,1.23,1.68,2.07,3.25,8.36,6.5,16.71,9.65,25.1,2.21,5.86,4.69,11.63,6,17.79.2.93.67,2-.27,2.66s-1.82-.25-2.49-.84c-1.7-1.5-3.29-3.11-4.94-4.67-.48-.45-.78-1.43-1.57-1.13-1,.35-.51,1.37-.47,2.08.43,6.69.91,13.39,1.38,20.09.78,11.12,1.56,22.25,2.35,33.38,1.14,16.43,2.34,32.87,3.41,49.31,1,15.95,1.47,31.89-2.71,47.56-2.66,10-6.82,19.19-14.33,26.57-6,5.88-13.22,7.33-21.25,6.16-11.27-1.64-21.33-6.2-30.61-12.65-.41-.28-.72-.89-1.32-.62s-.35.9-.31,1.37c.71,9,1.46,18.07,2.14,27.11.1,1.4,1,1.43,2,1.47,5.23.25,10.45.52,15.67.78,7.39.26,14.74,1.1,22,2.51,12.5,2.6,19.55,11,22.86,22.66,3.2,11.26,1.47,22.5-2.21,33.41-5.93,17.58-17.62,30.89-32,42-16.08,12.48-34.32,18.23-54.69,16.66-13.29-1-25.51-4.77-34.95-14.88-6.8-7.29-10.61-16.13-12.51-25.77-3.86-19.61-2.54-39,3-58.16.56-1.92.81-3.91.72-5.91-.92-20.92-1.32-41.85-1.78-62.78-.06-2.35-.21-4.71-.19-7.06-.07-1.13-.44-2.21-1.08-3.14-5.93-10.72-7.9-21.85-3.29-33.61.12-.42.3-.81.53-1.18,2.89-3.59,3-7.75,2.82-12.09-.51-16.39-.77-32.79-1.28-49.18-.66-23.27-3.02-46.46-7.06-69.38-.74-4.11-1.51-8.21-2.31-12.3-.54-2.79.3-5.58.72-8.3,1.09-6.43,2.6-12.77,4.53-19,.2-.39.45-.75.74-1.08Zm9.75,302c-.19.28-.34.58-.44.9-1.92,9.42-1.9,19.13.07,28.54,2.88,13,10.1,22.61,22.43,28.06,7.68,3.39,15.83,4.6,24.14,5.08,17.12,1,32.7-3.83,47.26-12.48,11.46-6.81,21.39-15.35,28.88-26.47,4.09-6.09,6.2-12.68,3.71-20-3.43-10.11-10.88-16-20.74-19-9.43-2.81-19.26-2.94-29-3.3-5.27-.2-5.18-.17-3.82,4.84.53,1.94,1.17,2.44,3.22,1.78,5.78-1.96,11.79-3.17,17.88-3.6,6.94-.37,12.76,1.83,16.23,7.93,6.45,11.32,7.07,23.24,1.58,35.08-3.19,6.9-9,9.33-16.44,8-4.73-.92-9.11-3.15-12.63-6.44-5.33-4.66-9.25-10.42-12.57-16.59-.94-1.73-1.68-2-3.37-1-4.65,2.91-9.5,5.48-14.53,7.68-7.92,3.51-16,6.58-24.83,6.31-11-.33-19.18-5.09-23.38-15.65-1-2.5-1.75-5.1-2.58-7.67-.25-.67-.2-1.5-1.07-2.05v.05Zm28.77,4.11c1.65-.13,3.31-.15,4.94-.39,9.61-1.42,18.3-5.4,26.86-9.73,1.5-.76,1.82-1.55,1.43-3.28-2.4-10.25-4.07-20.65-5-31.13-.76-9.73-1.69-19.44-2.38-29.17-.18-2.58-1-2.15-2.59-1.14-7.4,4.61-14.74,9.34-21.32,15.07-7.56,6.59-15.18,13.22-19.27,22.73-1.86,4.32-4.6,8.44-3.58,13.6.6,3.52,1.45,6.98,2.56,10.37,3.49,9.66,8.1,12.93,18.35,13.02v.05Zm-23.44-123.09c-1.17,8.06,1.13,14.73,7.72,19.78.89.69,1.67,1.53,2.56,2.23,10.43,8.15,22.05,11.54,35.2,8.69,1.43-.31,2.54-.64,2.42-2.65-.92-15.13-1.77-30.26-2.55-45.39-.07-1.48-.47-2.09-2.07-2.28-3.64-.34-7.31-.32-10.95.06-10.43.73-20.67,3.2-30.29,7.31-1.44.44-2.33,1.88-2.08,3.36.14,2.9.04,5.87.04,8.84v.05Zm22.79,49.32c-8.43-2.32-15.22-6.68-21.52-12v20.15c0,6,.17,12,.27,18,0,.49-.26,1.18.35,1.39.82.28.92-.53,1.19-1,.7-1.3,1.39-2.61,2.13-3.89,4.89-8.26,10.79-15.87,17.58-22.65Zm72.35,84.65c2,.05,4.18.19,5.13-2.15.69-1.7-.8-4.09-3.19-5.46-.3-.17-.63-.3-.94-.45-5.36-2.48-11-2.43-16.63-1.53-1.34.21-1.18.75-.45,1.49,4.47,4.49,9.41,8.03,16.09,8.1h-.01Z"/>
  <path class="cls-1" d="m3177.84,360.64c16,5.12,31.58,6.19,47.47,4.79-4.29,2.03-8.8,3.54-13.45,4.51-13.15,3.24-26.79,4.01-40.22,2.25-2.39-.32-4.06-.11-5.5,2.44-3.23,5.75-7,11.2-10.71,17.06-3.66-5.79-7.35-11.25-10.62-16.95-1.38-2.41-2.91-2.93-5.45-2.58-13.43,1.79-27.07,1.05-40.22-2.2-5.2-1.08-10.24-2.82-15-5.16,1.84.21,3.67.45,5.51.62,13.66,1.31,27.44-.03,40.6-3.93.64-.19,1.8,0,1.83-1,0-.83-1-.88-1.55-1.21-29.41-16.52-49.06-41-58.24-73.37-10.11-35.59-5.34-69.51,13.82-101.25,6.45-10.69,14.83-19.79,24-28.14.1-.1.33,0,.5-.06.47.38.23.72,0,1.11-12.6,18.97-19.93,40.95-21.24,63.69-2.57,42.15,10.3,78.8,39.76,109.32,3.2,3.31,6.85,6.2,10.3,9.27.43.38.81,1.09,1.51.74s.34-1.1.33-1.65c-.26-13.26-.58-26.51-.82-39.76-.32-18.41-.54-36.82-.87-55.22-.48-27.04-1-54.08-1.55-81.11,0-1.6.24-2.42,1.94-3,5.76-2,10.3-5.82,14.08-10.49,1.24-1.53,1.66-1.25,2.77.08,3.9,4.67,8.49,8.55,14.36,10.53,1.59.54,1.62,1.45,1.6,2.75-.36,17.79-.69,35.59-1,53.38-.31,18.23-.56,36.46-.87,54.69s-.66,36.46-1,54.68c-.08,4.45-.24,8.9-.31,13.34,0,.62-.46,1.51.42,1.84.65.24,1-.49,1.5-.86,15.24-12.34,27.56-27.9,36.07-45.57,10.62-21.65,15.52-45.65,14.25-69.73-.97-23.11-7.97-45.56-20.31-65.13-.6-.95-1.29-1.84-1.93-2.75,11.64,3.07,35.28,40.86,40.93,66.43,6,27.17,3.64,53.74-7.82,79.23s-29.57,44.87-54.87,58.37Z"/>
  <path class="cls-1" d="m3212.41,152.5c12.12,3.1,23.52,8.54,33.56,16,20.41,14.9,33.71,34.68,40.28,59.05,13.4,49.67-12.58,97.84-48.3,117.93,4-5,7.57-10.33,10.66-15.93,8.88-16.06,14.44-33.75,16.35-52,2.81-23.3-.09-46.93-8.44-68.86-8.35-21.83-21.22-40.33-40.95-53.51-1.08-.71-2.19-1.37-3.29-2.06l.13-.62Z"/>
  <path class="cls-1" d="m3100.36,152.04c-5.03,2.92-9.79,6.28-14.22,10.05-16.29,14.17-27,32-33.75,52.27-6.63,20.09-8.83,41.39-6.43,62.41,2.51,23.4,10,44.93,23.7,64.19,1,1.34,2,2.66,3,4-9.37-2.53-29.54-23.34-38.75-40.32s-13.8-35.5-12.62-54.81c3.48-57.42,44.48-89.65,79.07-97.79Z"/>
  <path class="cls-1" d="m3454.67,620.94c-.71-2.87-.89-5.85-.54-8.79,1.42-24.38,1.59-48.81.49-73.2-.59-14.12-.77-28.25-1.22-42.37-.88-27.45-1.8-54.9-2.75-82.35-.45-13.42-.74-26.85-1.54-40.25-1.05-17.66-2.36-35.3-3.07-53-.05-2.54-.64-5.05-1.74-7.34-.82-1.65-.88-3.58-.17-5.28,1.28-3.61,2.58-7.22,4-10.78.35-.88.46-2.38,1.67-2.33,1,0,1.16,1.41,1.5,2.26,2.47,6.32,4.91,12.65,7.32,19,2.17,5.7,4.43,11.36,6.11,17.23.15.5.28,1,.37,1.51.1.61.18,1.27-.44,1.65s-1.14,0-1.66-.35c-1.82-1.36-3.5-2.9-5-4.61-.43-.44-.69-1.44-1.6-.91-.62.36-.38,1.1-.34,1.69.54,7.91.94,15.84,1.66,23.73,1,11.55,1.6,23.13,2,34.71.67,20.74,1.38,41.48,2.13,62.22.51,15.08,1.01,30.16,1.49,45.23.44,14.11,1.24,28.23.87,42.36-.56,22.06-2,44-6.09,65.77-.86,4.8-2.01,9.54-3.45,14.2Z"/>
  <path class="cls-1" d="m3236.91,749.31c-1.22,4.59-3.2,8.15-7.47,10-1.22.46-2.37,1.09-3.41,1.87-1.32,1.18-3.07,1.74-4.83,1.55-2.12-.28-4.23.62-5.5,2.34-1.69,2.12-3.79,3.87-6.18,5.15-4.4,2.16-8.42.58-10-4-.68-1.94-1.32-2.1-2.76-.72-2.56,2.45-5.3,4.41-9.19,4.25-1.87-.08-2.37,1.79-2.76,3.34-2.04,7.49-5.2,14.63-9.36,21.18-5.19,8.49-11.57,15.71-21,19.68-6.01,2.74-12.82,3.19-19.13,1.24-6.09-1.7-10.29-7.27-10.24-13.6-.24-10.1,3.61-18.86,9-27.09,2-3.28,4.31-6.35,6.89-9.19.38-.4.75-1.19,1.45-.78.86.5.34,1.33,0,1.84-1.39,2.32-2.89,4.56-4.34,6.84-2.59,4-5,8.17-6.16,12.9-2.06,8.5,2.06,14.88,10.65,16.49,14.53,2.72,26.38-3.14,33.49-16.24,3.41-6.28,4.44-13.13,5.71-20,.17-1.02.43-2.02.77-3,.8-2.18,2.34-3.18,4.7-2.66l1.27.3c4.38,1,8.27.52,11.24-3.36,1.79-2.35,3.76-4.58,5.68-6.83.42-.5.82-1.46,1.58-1.09.92.44.28,1.36.13,2-1.2,5.23,1.82,9.11,6.47,8.27,1.88-.39,3.68-1.11,5.32-2.12,2.07-1.21,4.09-2.34,6.62-1.49.36.12,1.05.06,1.22-.18,2.31-3.19,7-2.91,9.12-6.41.07-.2.4-.23,1.02-.48Z"/>
  <path class="cls-1" d="m3033.89,742.57c1.62,7.29,3.24,14.58,4.87,21.86.68,2.9,1.96,5.62,3.75,8,.91,1.31,2.31,2.18,3.89,2.42,3.2.46,4.36-.62,4.46-3.81.16-5,0-10.12,2-14.93,1.04-2.65,3.34-4.6,6.12-5.21,2-.52,4,.41,4.13,2.06.21,2.14-1.07,2.83-3,3-3.65.14-6.59,3.02-6.81,6.66-.25,2.32.48,4.14,2.74,5.08,2.17.9,4.68.22,6.09-1.66,1.64-2.15,2.13-4.74,2.77-7.27.14-1.23.57-2.42,1.26-3.45.63,1.15.89,2.46.75,3.76-.52,6.9-1.65,13.68-4.77,20-2.43,4.9-6,8.5-11.68,9.49-2.96.57-6.01-.39-8.09-2.57-.58-.54-1.05-2.28-2.05-1.07-.72.88-1.68,2.51-.36,3.78,1.07,1.03,2.28,1.9,3.59,2.58,1.8.69,2.7,2.7,2.01,4.49,0,0,0,.02-.01.03-.64,2.24-1,5.21-4.06,5-5.1-.36-6.66,2.71-7.69,6.7-.82,3.21-2.31,5.73-5.87,6.61-2.18.54-3.32,2.49-4.32,4.33-1.32,2.45-2.61,4.93-3.68,7.49-1.4,3.52-4.77,5.86-8.55,5.95-5.46.4-10,2-13.19,6.71-.45.67-1.25,1.5-2.17,1.09-1.14-.51-.43-1.58-.2-2.32,1.71-5.87,4.68-11.31,8.7-15.92,1.93-2.44,4.89-3.83,8-3.76,4.6.17,7.76-2.09,9.9-6,1.62-3,3.41-5.69,7.28-6,1.17-.1,1.6-1.26,1.95-2.26,2.58-7.39,5.29-14.73,6.38-22.55.33-2.37-.45-4.49-1-6.65-1.26-4.71-2.64-9.38-3.89-14.09-1.54-5.84-.32-11.63,0-17.43l.75-.14Z"/>
  <path class="cls-1" d="m3394.42,482.84c-.21-2.4-.1-4.83.34-7.2,1.39-11.52,0-23-.65-34.46-.59-11-1.56-21.91-2.29-32.86-1.15-17.33-2.26-34.64-3.34-51.93-.31-5.21,0-10.48-2.1-15.44-.21-.67-.21-1.39,0-2.06.94-3.44,2.16-6.8,3.64-10.05.17-.37.48-.91.78-.95.59-.08.8.53,1,1,3.81,9.45,7.58,18.91,10.64,28.64.25.78.66,1.92-.16,2.4s-1.52-.53-2.18-1c-.48-.38-.85-.89-1.34-1.24-.93-.67-1.4-2.63-2.63-2-.9.47-.27,2.25-.19,3.43,1.16,16.26,2.38,32.51,3.51,48.77.93,13.31,2,26.61,2.56,39.92.49,11.34-1.12,22.44-5.9,32.89-.35.72-.42,1.7-1.69,2.14Z"/>
  <path class="cls-1" d="m2976.17,894.39c-4.06-11.17-7.4-22.48-8.65-34.32-.78-7.33-.75-14.61,1.12-21.79,1.21-4.93,3.53-9.51,6.78-13.41,1.72-1.84,2.71-4.24,2.79-6.75.22-7.51,2.18-14.86,5.72-21.49.62-1.15,1.43-2.47-.08-3.76-1.12-1-2-1.55-3.29-.23-1.34,1.61-3.57,2.15-5.5,1.34-1.87-.86-2-3-2.08-4.8-.05-3.66.4-7.31,1.34-10.85.69-2.57,2.36-3.49,4.88-3.2,2.28.23,4.38,1.38,5.81,3.17,5.25,6.3,5.81,15.27,1.4,22.18-1.49,2.05-2.82,4.2-4,6.44-.24.53-.67,1.14-.15,1.67s1,.1,1.5,0c1-.11,2.07-.27,3.11-.32,5.61-.27,6,1.88,6,6.24.14,4.09-1.56,8.02-4.64,10.71-3.2,2.82-6.47,5.57-9.75,8.3-7.57,6.3-10,14.29-8.18,23.86,2,10.68,4.69,21.24,5.83,32.08.29,1.63.3,3.3.04,4.93Z"/>
  <path class="cls-1" d="m3188.52,121.79c1,6.02-.12,12.21-3.18,17.49-5.49,9.38-15.29,12.44-24.09,7.6-1.72-.88-3.23-2.11-4.44-3.61-1.25-1.65-1.91-.91-3,.17-5.07,5.16-11.12,7.2-18.09,4.7-7.74-2.76-11.41-9-13.25-16.59-.68-2.85-.73-5.82-.15-8.69,2.81,7.08,7.06,12.49,15,13.73,8.05,1.27,13.74-2.46,18.05-9.27,4.42,6.84,10.31,10.76,18.61,9.19,8.09-1.54,12.26-7.2,14.54-14.72Z"/>
  <path class="cls-1" d="m3252.84,799.87c2.92-.11,5.78.88,8,2.78,2.14,1.68,4.67,2.77,7.36,3.16,2.43.39,3.83-.64,4.45-2.94s-.61-3.44-2.44-4.29c-.75-.35-2.08-.18-2.11-1.19,0-1.19,1.27-1.57,2.23-1.87,4.82-1.57,10.1-.59,14.05,2.59,2.26,1.7,2.11,3.65-.08,5.72-.25.24-.56.42-.79.68-.73.87-2.78,1-2.24,2.41s2.28.87,3.57.87c1.94-.08,3.8-.83,5.24-2.13,5.28-4.22,11.55-6.74,17.27-10.19.58-.35,1-.53,1.51.2,2.9,4.04,1.97,9.66-2.07,12.56-.22.16-.45.3-.68.44-2,1.18-4,1.45-5.8-.14-3-2.71-5.87-1.9-8.82,0-2.85,1.85-5.89,3.37-9.08,4.55-2.69.94-5.68.44-7.92-1.32-.93-.79-2.24-.97-3.35-.46-2.43.93-5,1.59-7.44,2.43-5,1.67-9.64,1-13.48-2.42-4-3.58-8.46-4.54-13.55-3.69-.72.12-1.8.56-2.16-.26-.48-1.1.79-1.39,1.45-1.77,5.26-3.06,10.73-5.45,16.88-5.72Z"/>
  <path class="cls-1" d="m3334.04,788.86c-.92,1.19-1.83,2.39-2.76,3.58-5.7,7.37-11.12,14.94-16.26,22.73-1.7,2.35-2.57,5.2-2.47,8.1.08,1.75.75,3.43,1.89,4.76,1.33,1.59,2.52,2,4.63.8,4.41-2.57,8.68-5.48,13.65-7,2.86-1.01,6.05-.26,8.16,1.92,1.95,1.78,3.4,4.26,6.41,4.66.8.1.72.83.3,1.42-.8,1.26-1.98,2.24-3.36,2.81-5.84,1.95-10.86,5.48-16.33,8.14-6,2.93-12.23,4.09-18.55.84-7.53-3.87-9.53-10.31-5.29-17.67,5.44-9.46,12.08-18.11,18.85-26.64,2.93-3.67,7.02-6.05,11.13-8.45Zm-6,45.08c3.25-.25,6.42-1.15,9.31-2.66,1.2-.55,1.17-1.17.44-2.21-2.57-3.72-5.63-4.64-9.67-2.63-2.49,1.23-4.9,2.63-7.33,4-.43.24-1.08.36-1.06,1s.75.84,1.29,1.06c2.25.86,4.62,1.34,7.03,1.44h-.01Z"/>
  <path class="cls-1" d="m3108.49,768.14c.56-7.47,6.74-11.87,13.19-9.78,1.82.59,3.62,1.21,5.45,1.77,2.62.83,5.48.35,7.69-1.29.53-.37,1-1.06,1.8-.34.6.57.21,1.14,0,1.68-1.3,3.25-2.49,6.26-5.37,8.89-5.76,5.28-10.71,11.44-16,17.25-1.2,1.33-1.51,3.12-2.2,4.71-2.93,6.75-7.3,11.77-14.9,13.33-3.24.67-6.27,2.35-9.82,2.25.31-1.48,1.49-1.68,2.31-2.18,4.4-2.65,9-5,13-8.29,1.47-1.22,2.88-2.53,4.21-3.91.78-.8,1.84-1.81,1.5-2.88-.42-1.29-1.81-.34-2.74-.4-5.49-.38-7.45-3.26-5.65-8.42.94-2.63,2.22-5.12,3.83-7.4,3.06-4.41,6.87-4.08,9.54.6.71,1.25.31,3.57,1.84,3.66s2.6-1.82,3.8-2.93c1.76-1.56,3.36-3.29,4.77-5.18.81-1.14.77-1.76-.46-2.45-2.02-1.2-4.17-2.17-6.41-2.88-1.76-.64-3.73-.3-5.18.89-1.27,1.06-2.59,2.04-4.2,3.3Z"/>
  <path class="cls-1" d="m3344.48,673.45c-1.44,4.19-3.46,8.15-6,11.78-.74,1.12-1.51.08-2.18-.38-3.6-2.45-7.23-4.85-10.77-7.39-1.29-.94-1.8-.77-2.46.67-1.16,2.52-2.58,4.93-3.87,7.4-.67,1.26-1.34,1.54-2.61.52-3.75-2.99-7.67-5.75-11.75-8.27-1.21-.75-1.43-1.45-.72-2.75,1.81-3.37,3.54-6.8,5.18-10.26.7-1.5,1.45-1.67,2.79-.8,3.87,2.35,7.59,4.96,11.12,7.79,1,.85,1.45.91,2-.4,1.16-2.62,2.52-5.16,3.77-7.75.58-1.2,1.23-1.43,2.44-.69,4.18,2.52,8.2,5.29,12.05,8.29.7.55,1.37,1.16,1.01,2.24Z"/>
  <path class="cls-1" d="m3207.94,795.5c1-1.2,2.38-2.03,3.91-2.34,11.37-3.34,19.71-10.46,25.89-20.38.75-1.07,1.6-2.07,2.52-3,.34-.37.8-.91,1.31-.59s.32,1.08.05,1.63c-1.25,2.48-2.65,4.91-2.7,7.81,0,2.58.06,5.1,2.55,6.71,1.07.7,2,1,2.74-.54.66-1.32,1.61-2.49,2.31-3.79.91-1.7,1.84-1.28,2.71-.07,1,1.35,1.33,3.08.91,4.71-.74,3.23-2.1,6.29-4,9-2.5,3.57-5.76,5.09-8.85,4.11-2.66-.84-5.17-4.83-5.38-8.37,0-.71.63-1.76-.36-2.07s-1.19.83-1.7,1.37c-3,3.18-6.53,5.44-11.11,5.66-3,.14-5.9.52-8.85.75-.69.05-1.45.3-1.95-.6Z"/>
  <path class="cls-1" d="m3075.4,790.78c-.43,6.22-2.75,12.15-6.67,17-.54.68-1.19,1.28-1.91,1.76-2.05,1.42-4.19,2.62-6.73,1.12-1.88-1.1-2.73-3.78-2.24-6.75.42-2.31,1.09-4.57,2-6.74.69-1.73,2.73-3.24.93-5.47-.22-.27.23-1.14.45-1.7,1.4-3.56,2.79-7.12,4.25-10.64,1-2.31,1.8-2.49,4-1.09,4.24,2.77,5.9,6.87,5.92,12.51Zm-5.69,8.62c0-1.74-3.66-5.3-5.27-5.15-1.25.11-3.72,4.53-3.57,6.54s1.49,2.79,3.38,2.8c2.7.01,5.5-2.14,5.46-4.19Z"/>
  <path class="cls-1" d="m3268.07,453.92c-.23.66-.49,1.49-.82,2.29-1.47,3.24-3.17,6.37-5.1,9.36-.67,1.11-1.26,1.43-2.42.49-3.87-3.08-7.95-5.9-12.2-8.44-1.42-.87-1.56-1.59-.7-3.11,1.88-3.32,3.46-6.81,5.08-10.27.78-1.65,1.71-1.91,3.25-.92,3.97,2.49,7.82,5.19,11.51,8.08.91.5,1.45,1.48,1.4,2.52Z"/>
  <path class="cls-1" d="m3431.31,576.89c-.39-.28-.73-.54-1.08-.78-4.09-2.8-8.15-5.65-12.28-8.39-1.16-.77-1.51-1.36-.79-2.71,1.84-3.45,3.58-6.95,5.23-10.5.85-1.86,1.76-2,3.4-.93,3.81,2.44,7.51,5,11.13,7.75,1.5.86,2.03,2.76,1.2,4.28-1.55,3.5-3.38,6.87-5.46,10.08-.28.55-.77.98-1.35,1.2Z"/>
  <path class="cls-1" d="m3245.6,454.14c-.83,2.72-2.03,5.31-3.58,7.69-3.06,5.27-3.06,5.2-8,1.65-3-2.12-6-4.11-9.12-6.07-1.11-.71-1.28-1.31-.65-2.5,1.88-3.52,3.67-7.1,5.38-10.71.72-1.53,1.49-1.9,3-1,4.15,2.54,8.14,5.34,11.95,8.37.85.55,1.26,1.58,1.02,2.57Z"/>
  <path class="cls-1" d="m3306.23,422.27c-1.33,4.47-3.86,8.33-6.33,12.21-.53.82-1.12.44-1.74-.05-4.04-3.16-8.27-6.07-12.67-8.71-1.18-.71-1.25-1.4-.66-2.53,1.87-3.63,3.7-7.28,5.47-10.95.7-1.47,1.48-1.63,2.84-.79,4.07,2.51,8,5.25,11.75,8.21.8.64,1.68,1.38,1.34,2.61Z"/>
  <path class="cls-1" d="m3252.96,429.14c-.76,2.58-1.86,5.04-3.28,7.33q-3.23,6-8.71,2.14c-2.77-1.95-5.58-3.84-8.46-5.63-1.29-.81-1.58-1.51-.83-2.92,1.84-3.44,3.54-7,5.24-10.48.67-1.4,1.29-2,2.94-1,4.16,2.53,8.15,5.33,11.94,8.38.69.56,1.32,1.14,1.16,2.18Z"/>
  <path class="cls-1" d="m3095.25,775.35c-1,7.52-2.11,15.62-5,23.35-1.24,3.49-3.87,6.32-7.27,7.8-3.1,1.59-6.36,2.82-9.73,3.68-.62.13-1.27.25-1.58-.45s.22-1,.57-1.34c1.03-1.18,2.17-2.27,3.4-3.25,9.91-6.79,14.65-16.69,17-28.06.22-1.1.59-2.18.89-3.26.19-.66.24-1.62,1.1-1.55s.51,1.08.6,1.7c.03.46.04.92.02,1.38Z"/>
  <path class="cls-1" d="m3195.33,805.41c-.69,2.79-2.38,5.22-4.75,6.85-1,.7-1.58,0-2.19-.71-1.09-1.23-2.07-3.21-3.38-3.46-1.62-.31-1.81,2.31-3.06,3.33-1.49,1.23-2.51,1.67-4.07-.1-4.08-4.67-4.07-3.31-.42-8.45.36-.5.74-1,1.11-1.46,2.73-3.59,2.8-3.51,5.52.27.71,1,.27,3.08,1.87,2.89.84-.1,1.5-1.77,2.22-2.75,3.08-4.2,3.78-4.15,6.35.51.57.92.85,2,.8,3.08Z"/>
  <path class="cls-1" d="m2978.44,758.59c0,.24,0,.76-.12,1.28-.71,4.61-1.19,5-5.57,3.47-2.06-.71-3.46-1.1-3.18,1.94-.02.96-.23,1.91-.64,2.78-.43,1.21-1.11,1.68-2.6,1.25-5.62-1.62-5.64-1.55-5.12-7.28,0-.26.03-.52.07-.78.4-1.57-.13-4.07,1.23-4.51,1.78-.58,3.75.85,5.38,2,.47.33.7,1.17,1.44.85s.29-1.09.39-1.65c.31-1.71.66-3.42.82-5.15s.84-1.49,2.07-1.09c4.39,1.45,5.86,3.03,5.83,6.89Z"/>
  <path class="cls-1" d="m3027.73,835.14c.22-1.72.47-3.79.77-5.85.2-1.43.73-2.22,2.41-1.4,1.47.71,3.17,1,4.23,2.39.26.36.56.72,1,.54s.36-.71.41-1.12c.2-1.9.42-3.79.61-5.69.14-1.39.65-1.64,2.07-1.22,5.68,1.71,7.6,5.87,5,11.3-.56,1.19-1.29,1.85-2.64,1.06-.24-.11-.49-.19-.74-.24q-3.87-1.29-4.71,2.47c-.72,3.18-1.18,3.45-4.32,2.51-1-.29-2-.56-3-.88-1.83-.64-1.06-2.22-1.09-3.87Z"/>
  <path class="cls-1" d="m3163.41,775.27c0,2.83-3.65,8.47-6.17,9.51-.61.38-1.41.24-1.86-.32-.11-.13-.24-.25-.35-.38-6.55-7.25-6.24-4.63-.87-12.26.09-.15.19-.29.3-.42,1.39-1.35,2-3.7,4.07-4.05,1.31-.22,4.86,5.97,4.88,7.92Z"/>
  <path class="cls-1" d="m3218.84,768.59c.56.75.59,1.76.08,2.54-2.38,5.8-5.43,11.3-9.1,16.39-3.24,4.41-11.54,7-16.73,5.46-.41-.12-.87-.19-1-.71s.36-.74.75-.92c1.74-.8,3.43-1.73,5.23-2.35,6.75-2.32,12.43-7.01,16-13.19,1.45-2.35,3.05-4.6,4.77-7.22Z"/>
  <path class="cls-1" d="m3093.72,757.58c-.12.63-.27,1.25-.46,1.86-.72,2.05-1.28,4.88-3.44,5.15s-3.8-2-5.53-3.45c-.57-.45-.69-1.27-.27-1.87,1.19-2.51,2.33-5,3.54-7.53.23-.48.38-1.19,1.29-.94,1.88.52,4.86,4.35,4.87,6.78Z"/>
  <path class="cls-1" d="m3310.45,854.65c0,2.93-4.75,7.36-7.33,7.21-.44.03-.86-.18-1.1-.55-.21-.38-.37-.79-.56-1.18q-2.49-5.38,2.53-8.6c.15-.09.28-.22.43-.29,1.4-.65,3-2.67,4-1.93,1.57,1.18,1.83,3.6,2.03,5.34Z"/>
  <path class="cls-1" d="m3151.35,948.24c-.06,1.13-.16,2.26-.18,3.4-.07,5,2.88,8.11,7.9,8.46,8.88.62,16-5.22,17.4-14.23.47-3.11.61-6.25.41-9.39-.12-2.05.63-3.09,2.78-2.33,1.26.43,2.65.15,3.64-.73,1.61-1.17,3.71-1.13,5.52-2,1.24-.59,1.31-1,1.08-2-.85-3.8,1-6.78,2.74-10,.39.37.61.49.6.58-.17,1.75-.52,3.61,1.45,4.61s3.68,0,5.19-1.32c1.95-1.69,4.81-1.78,6.59-4,.76-.93,2-1.55,2.58-2.85.39,1.42.01,2.93-1,4-2.24,2-3.66,5.06-7.28,5.43-1.7.18-2.37,2.19-3.44,3.43-1.34,1.55-2.62,3.09-5,2.6-.44-.1-.89.07-1.16.43-2.56,3.2-6.38,4.11-10,5.33-1.68.57-2.06,1.33-2.14,2.94-.37,8.54-3.88,16.64-9.86,22.74-2.85,3.05-6.83,4.77-11,4.76-5.61,0-9-2.93-9.52-8.58-.5-4.43.19-8.92,2-13,.9.4.52,1.16.7,1.72Z"/>
  <path class="cls-1" d="m3119.2,954.32c-.3-3.42-.92-6.81-1.85-10.12-.89-2.84-1.74-5.73-3.55-8.08-1.74-2.02-2.05-4.91-.76-7.25.28-.7.53-1.41.74-2.13,1.67,1.12,2.89,3,5,2.95s3-2,4-3.61c3.06,3.43,3.78,3.46,7,.29-.21,2.39-.97,4.71-2.23,6.75-1.18,1.8-2.84,2.64-4.9,1.44-.94-.54-1.57-.83-2.46.13s-1.76,1.44-1.28,3c1.57,5.01,1.92,10.32,1,15.49-.07.39.08.86-.71,1.14Z"/>
  <path class="cls-1" d="m3100.15,954.51c-.27-4.68-1.28-9.29-3-13.66-.5-1.58-1.25-3.06-2.22-4.4-2.79-3.27-1.59-6.36-.14-9.63,5.23,4,5.73,4,9.13-.61,2.83,3.15,3.95,3.23,6.69.22-.02,2.75-1.01,5.41-2.8,7.5-.99,1.33-2.87,1.61-4.2.62,0,0-.02-.01-.02-.02-1-.67-1.65-.76-2.42.2s-1.84,1.22-1.28,2.95c1.54,4.74,1.94,9.77,1.17,14.69-.12.72.19,1.67-.91,2.14Z"/>
  <path class="cls-1" d="m3133.57,927.04c3.35,4.86,5.88,10.24,7.51,15.91,1.9-6.09,5-11.31,9.05-16.71.23,3,.47,5.25-1.22,7.52-4.23,5.59-6.86,12.23-7.61,19.2.05.7-.24,1.39-.79,1.83-.73-3-.78-6-1.78-8.76-1-3-1.95-6.14-4-8.45-2.82-3.24-2.36-6.45-1.16-10.54Z"/>
  <path class="cls-1" d="m3215.1,945.41c.22,2.53-.49,5.06-2,7.1-.64,1.19-1.98,1.84-3.31,1.61-1.43-.19-2.59-1.23-2.94-2.63-.42-1.14-.63-2.35-.64-3.57.46-7.47.77-15,3.24-22.12.14-.38.36-.72.74-1.47.38,1.87.38,3.79,0,5.66-.48,4.4-1.49,8.78-.86,13.23.51,3.43,2.74,4.31,5.77,2.19Z"/>
  <path class="cls-1" d="m3086.34,926.04c5,9.26,7.86,18.18,5.68,28.12-.77-3.87-1.77-7.68-3-11.43-.89-2.82-2.14-5.51-3.73-8-1.06-1.16-1.23-2.88-.43-4.23.61-1.45,1.1-2.94,1.48-4.46Z"/>
  <path class="cls-1" d="m3216.36,923.32c.46.33.87.72,1.23,1.15,1,1.55,1.69,1.62,2.54-.22,1.15-2.48,1.85-2.45,3.68-.17s-.11,3.58-1.11,5.05-2,.08-2.69-.57c-1.26-1.23-1.58-.47-2.18.59-.43.76-.85,2.34-2.21,1.29-1.13-.86-3.31-1.45-1.84-3.73.56-.87,1-1.84,1.47-2.75.14-.47.63-.75,1.11-.64Z"/>
  <path class="cls-1" d="m3196.96,949.67c-.24.6-.5,1.43-.89,2.2-.69,1.35-1.54,2.16-2.92.63-1-1.13-1.87-1.38-2.59.41-.34.84-.95,2.22-2.28,1.07-1-.88-3.22-1.31-1.82-3.51.34-.5.63-1.04.86-1.6.78-2.14,1.89-2.59,3.29-.57,1.05,1.52,1.48,1.13,2.2-.29.37-.74.45-2.49,1.91-1.86,1.4.6,2.29,2,2.24,3.52Z"/>
  <path class="cls-1" d="m3151.35,948.24c-.18-.56.2-1.32-.58-1.68.76-2.87,1.92-5.63,3.45-8.18l.74.27c-1.2,3.2-2.4,6.4-3.61,9.59Z"/>
  <path class="cls-1" d="m3072.78,599.91c-1.03,3.13-2.45,6.12-4.25,8.88-2.13,3.64-2.12,3.58-5.53,1.16-3.11-2.22-6.26-4.36-9.47-6.43-1.21-.78-1.75-1.36-.93-2.86,1.79-3.27,3.39-6.65,5-10,.66-1.37,1.35-1.81,2.8-.88,3.85,2.35,7.55,4.95,11.08,7.76.74.6,1.53,1.2,1.3,2.37Z"/>
  <path class="cls-1" d="m3310.51,584.85c-1.3,4.38-3.74,8.2-6.17,12-.58.9-1.25.58-2,0-4.07-3.13-8.31-6.05-12.68-8.75-.7-.26-1.06-1.05-.8-1.75.05-.13.12-.26.21-.37,1.89-3.73,3.76-7.47,5.59-11.21.64-1.32,1.4-1.51,2.68-.73,4.2,2.49,8.21,5.29,12,8.36.78.64,1.5,1.29,1.17,2.45Z"/>
</svg>